<svg width="30" height="30" viewBox="0 0 30 30" fill="none" xmlns="http://www.w3.org/2000/svg">
<g id="Group 596">
<g id="Category">
<path id="Fill 1" opacity="0.4" d="M21.1135 0H26.1924C28.2958 0 30.0002 1.71878 30.0002 3.83996V8.96181C30.0002 11.083 28.2958 12.8018 26.1924 12.8018H21.1135C19.0101 12.8018 17.3057 11.083 17.3057 8.96181V3.83996C17.3057 1.71878 19.0101 0 21.1135 0" fill="#A0A2B3"/>
<path id="Combined Shape" fill-rule="evenodd" clip-rule="evenodd" d="M3.8078 0H8.88676C10.9902 0 12.6946 1.71878 12.6946 3.83996V8.96181C12.6946 11.083 10.9902 12.8018 8.88676 12.8018H3.8078C1.70439 12.8018 0 11.083 0 8.96181V3.83996C0 1.71878 1.70439 0 3.8078 0ZM3.8078 17.1982H8.88676C10.9902 17.1982 12.6946 18.917 12.6946 21.0382V26.16C12.6946 28.2798 10.9902 30 8.88676 30H3.8078C1.70439 30 0 28.2798 0 26.16V21.0382C0 18.917 1.70439 17.1982 3.8078 17.1982ZM26.1923 17.1982H21.1133C19.0099 17.1982 17.3055 18.917 17.3055 21.0382V26.16C17.3055 28.2798 19.0099 30 21.1133 30H26.1923C28.2957 30 30.0001 28.2798 30.0001 26.16V21.0382C30.0001 18.917 28.2957 17.1982 26.1923 17.1982Z" fill="#777A95"/>
</g>
</g>
</svg>
