<svg width="108" height="26" viewBox="0 0 108 26" fill="none" xmlns="http://www.w3.org/2000/svg">
<g id="Doctor">
<path d="M0 0.67395H9.71288C13.067 0.67395 15.862 1.86813 18.0981 4.25649C20.3574 6.6212 21.4871 9.56526 21.4871 13.0887C21.4871 16.6121 20.3574 19.5562 18.0981 21.9209C15.862 24.3092 13.067 25.5034 9.71288 25.5034H0V0.67395ZM4.8215 20.8213H9.71288C11.8325 20.8213 13.5561 20.1119 14.8838 18.693C16.2114 17.2269 16.8752 15.3588 16.8752 13.0887C16.8752 10.7949 16.2114 8.93861 14.8838 7.51979C13.5561 6.07731 11.8325 5.35608 9.71288 5.35608H4.8215V20.8213Z" fill="#777A95"/>
<path d="M39.5814 23.3042C37.8112 25.1014 35.6217 26 33.013 26C30.4042 26 28.2148 25.1014 26.4446 23.3042C24.6743 21.507 23.7892 19.2842 23.7892 16.6357C23.7892 14.0109 24.6743 11.7999 26.4446 10.0027C28.2381 8.18191 30.4275 7.27149 33.013 7.27149C35.5984 7.27149 37.7879 8.18191 39.5814 10.0027C41.3749 11.8236 42.2716 14.0346 42.2716 16.6357C42.2716 19.2606 41.3749 21.4834 39.5814 23.3042ZM29.6239 20.1473C30.5323 21.0696 31.662 21.5307 33.013 21.5307C34.3639 21.5307 35.4936 21.0696 36.402 20.1473C37.3104 19.2251 37.7646 18.0546 37.7646 16.6357C37.7646 15.2169 37.3104 14.0464 36.402 13.1242C35.4936 12.2019 34.3639 11.7408 33.013 11.7408C31.662 11.7408 30.5323 12.2019 29.6239 13.1242C28.7388 14.07 28.2963 15.2406 28.2963 16.6357C28.2963 18.0309 28.7388 19.2015 29.6239 20.1473Z" fill="#777A95"/>
<path d="M53.7576 26C51.1256 26 48.9245 25.1014 47.1543 23.3042C45.4074 21.507 44.5339 19.2842 44.5339 16.6357C44.5339 13.9873 45.4074 11.7644 47.1543 9.96726C48.9245 8.17008 51.1256 7.27149 53.7576 7.27149C55.458 7.27149 57.0069 7.68532 58.4045 8.51297C59.802 9.34061 60.8618 10.452 61.5838 11.8472L57.7057 14.1528C57.3563 13.4197 56.8206 12.8404 56.0985 12.4147C55.3998 11.9891 54.6078 11.7763 53.7227 11.7763C52.3718 11.7763 51.2537 12.2374 50.3686 13.1596C49.4835 14.0582 49.041 15.2169 49.041 16.6357C49.041 18.0073 49.4835 19.166 50.3686 20.1119C51.2537 21.0105 52.3718 21.4598 53.7227 21.4598C54.6311 21.4598 55.4347 21.2588 56.1335 20.8568C56.8555 20.4311 57.3912 19.8518 57.7406 19.1187L61.6537 21.3888C60.8851 22.8076 59.7903 23.9309 58.3695 24.7585C56.972 25.5862 55.4347 26 53.7576 26Z" fill="#777A95"/>
<path d="M74.0298 7.76808V12.1664H70.0818V19.5443C70.0818 20.1592 70.2332 20.6085 70.536 20.8922C70.8388 21.176 71.2813 21.3415 71.8637 21.3888C72.446 21.4125 73.168 21.4006 74.0298 21.3533V25.5034C70.9786 25.8581 68.8007 25.5744 67.4964 24.6521C66.2153 23.7062 65.5747 22.0036 65.5747 19.5443V12.1664H62.5351V7.76808H65.5747V4.18555L70.0818 2.80219V7.76808H74.0298Z" fill="#777A95"/>
<path d="M91.5454 23.3042C89.7752 25.1014 87.5858 26 84.977 26C82.3683 26 80.1788 25.1014 78.4086 23.3042C76.6384 21.507 75.7533 19.2842 75.7533 16.6357C75.7533 14.0109 76.6384 11.7999 78.4086 10.0027C80.2021 8.18191 82.3916 7.27149 84.977 7.27149C87.5625 7.27149 89.7519 8.18191 91.5454 10.0027C93.3389 11.8236 94.2357 14.0346 94.2357 16.6357C94.2357 19.2606 93.3389 21.4834 91.5454 23.3042ZM81.588 20.1473C82.4964 21.0696 83.6261 21.5307 84.977 21.5307C86.328 21.5307 87.4576 21.0696 88.366 20.1473C89.2744 19.2251 89.7286 18.0546 89.7286 16.6357C89.7286 15.2169 89.2744 14.0464 88.366 13.1242C87.4576 12.2019 86.328 11.7408 84.977 11.7408C83.6261 11.7408 82.4964 12.2019 81.588 13.1242C80.7029 14.07 80.2603 15.2406 80.2603 16.6357C80.2603 18.0309 80.7029 19.2015 81.588 20.1473Z" fill="#777A95"/>
<path d="M101.913 7.76808V10.8186C102.309 9.70714 102.985 8.86767 103.94 8.30014C104.895 7.70896 105.99 7.41337 107.224 7.41337V12.5211C105.85 12.332 104.615 12.6157 103.521 13.3724C102.449 14.1055 101.913 15.3233 101.913 17.0259V25.5034H97.4064V7.76808H101.913Z" fill="#777A95"/>
</g>
</svg>
