<svg width="20" height="20" viewBox="0 0 20 20" fill="none" xmlns="http://www.w3.org/2000/svg">
<g id="Icon">
<path id="Vector" d="M19.8389 8.1489C19.9279 8.1489 19.9999 8.22097 19.9999 8.30988V10C19.9999 10.6326 19.9412 11.2511 19.8285 11.8511C18.9567 16.5116 14.8509 20.0337 9.92945 19.9997C4.40724 19.9617 -0.0122012 15.4998 2.53076e-05 9.97746C0.0121737 4.46508 4.48474 0 9.99996 0C12.702 0 15.1536 1.07195 16.9536 2.8132C17.0186 2.87605 17.0203 2.97965 16.9563 3.04355L14.5653 5.43461C14.5037 5.49617 14.4043 5.49777 14.3412 5.43773C13.2115 4.36238 11.683 3.70219 9.99996 3.70219C6.52454 3.70219 3.72591 6.48094 3.70232 9.95629C3.67861 13.4545 6.50735 16.2978 9.99996 16.2978C12.8337 16.2978 15.2305 14.4257 16.0209 11.8511H10.1609C10.072 11.8511 9.99996 11.779 9.99996 11.6901V8.30984C9.99996 8.22094 10.072 8.14887 10.1609 8.14887H19.8389V8.1489Z" fill="#2196F3"/>
<g id="Group">
<path id="Vector_2" d="M19.839 8.1489H18.6318C18.7207 8.1489 18.7928 8.22097 18.7928 8.30987V9.99999C18.7928 10.6326 18.734 11.2511 18.6213 11.8511C17.7896 16.2973 14.0144 19.7072 9.39575 19.9819C9.57247 19.9924 9.75036 19.9985 9.9295 19.9997C14.851 20.0337 18.9568 16.5115 19.8285 11.8511C19.9412 11.2511 20 10.6326 20 9.99999V8.30983C20 8.22097 19.9279 8.1489 19.839 8.1489Z" fill="#1E88E5"/>
</g>
<path id="Vector_3" d="M4.2797 7.36258L1.24268 5.1682C2.9465 2.08652 6.22977 0 9.99999 0C12.7021 0 15.1537 1.07195 16.9536 2.8132C17.0186 2.87605 17.0203 2.97965 16.9564 3.04355L14.5653 5.43461C14.5039 5.49605 14.4044 5.49797 14.3415 5.43805C13.2118 4.3625 11.6832 3.70223 9.99999 3.70223C7.46359 3.70223 5.27727 5.2016 4.2797 7.36258Z" fill="#F44336"/>
<path id="Vector_4" d="M3.40283 6.72907L4.27959 7.36254C5.19013 5.39012 7.09122 3.96958 9.34473 3.73657C9.36168 3.73473 9.37797 3.73251 9.39524 3.73087C9.19692 3.71204 8.99594 3.70219 8.79266 3.70219C6.50138 3.70219 4.50451 4.91012 3.40283 6.72907Z" fill="#E53935"/>
<path id="Vector_5" d="M15.7464 2.8132C15.8114 2.87605 15.8131 2.97965 15.7491 3.04359L13.8084 4.98433C13.9943 5.12574 14.1723 5.27699 14.3412 5.43777C14.4042 5.49781 14.5037 5.49621 14.5653 5.43465L16.9563 3.04359C17.0203 2.97965 17.0186 2.87609 16.9536 2.8132C15.1536 1.07195 12.702 0 9.99995 0C9.79718 0 9.59601 0.00675781 9.39624 0.0186719C11.8587 0.165352 14.0814 1.20258 15.7464 2.8132Z" fill="#E53935"/>
<path id="Vector_6" d="M17.3356 16.796C15.5095 18.7666 12.8986 20 10 20C6.08495 20 2.69543 17.7501 1.05396 14.4724L4.15453 12.3477C5.08496 14.6628 7.35175 16.2978 10 16.2978C11.662 16.2978 13.1734 15.6539 14.2986 14.602L17.3356 16.796Z" fill="#4CAF50"/>
<path id="Vector_7" d="M4.15453 12.3477L3.24023 12.9742C4.30215 14.9525 6.39038 16.2978 8.79276 16.2978C8.99592 16.2978 9.19674 16.2878 9.39498 16.269C7.01026 16.0417 5.0132 14.4844 4.15453 12.3477Z" fill="#43A047"/>
<path id="Vector_8" d="M10.0001 20C12.8986 20 15.5095 18.7666 17.3357 16.796L16.5918 16.2586C14.8771 18.3926 12.3049 19.8083 9.39795 19.9818C9.59717 19.9937 9.79787 20 10.0001 20Z" fill="#43A047"/>
<path id="Vector_9" d="M3.70221 10C3.70221 10.8298 3.86276 11.6222 4.15452 12.3477L1.0539 14.4724C0.379491 13.1268 0 11.6077 0 10C0 8.24752 0.450702 6.60042 1.24265 5.16823L4.27967 7.3626C3.90905 8.16459 3.70221 9.05838 3.70221 10Z" fill="#FFC107"/>
<path id="Vector_10" d="M3.24014 12.9742L4.15443 12.3477C3.86267 11.6221 3.70213 10.8298 3.70213 9.99999C3.70213 9.05835 3.90896 8.16456 4.27959 7.36257L3.40283 6.7291C2.8335 7.66913 2.50307 8.77222 2.49502 9.95632C2.4876 11.0483 2.75818 12.0764 3.24014 12.9742Z" fill="#FFB300"/>
</g>
</svg>
