<svg width="25" height="20" viewBox="0 0 25 20" fill="none" xmlns="http://www.w3.org/2000/svg">
<path id="Icon" d="M24.6024 2.32662C24.0469 2.56351 23.4703 2.75039 22.8787 2.88569C23.5306 2.28986 24.0208 1.54461 24.2973 0.712776C24.3763 0.475301 24.1081 0.269951 23.8851 0.3971C23.062 0.866657 22.1754 1.21891 21.2498 1.44419C21.1961 1.45727 21.1407 1.46389 21.0851 1.46389C20.9165 1.46389 20.7526 1.40369 20.6237 1.29442C19.639 0.459708 18.3724 0 17.0575 0C16.4885 0 15.914 0.085294 15.35 0.253537C13.6023 0.774856 12.2539 2.16131 11.8308 3.87188C11.6721 4.51349 11.6291 5.15568 11.703 5.78059C11.7115 5.8524 11.6762 5.90252 11.6544 5.92603C11.6162 5.96724 11.562 5.99086 11.5058 5.99086C11.4995 5.99086 11.493 5.99057 11.4866 5.98998C7.66111 5.64816 4.21144 3.87563 1.77303 0.998965C1.64868 0.852236 1.41024 0.870233 1.31113 1.03373C0.833627 1.8216 0.581283 2.72272 0.581283 3.63968C0.581283 5.04495 1.16832 6.36926 2.18799 7.33469C1.75919 7.23691 1.34417 7.08292 0.958641 6.87698C0.772126 6.77732 0.542639 6.90541 0.540018 7.11059C0.513321 9.19821 1.78418 11.0558 3.68798 11.8923C3.64964 11.8931 3.6113 11.8936 3.5729 11.8936C3.27112 11.8936 2.96557 11.8655 2.66483 11.8103C2.45478 11.7717 2.27833 11.9633 2.34354 12.1592C2.96148 14.0146 4.62256 15.3822 6.61035 15.6927C4.9606 16.7578 3.03944 17.3197 1.03989 17.3197L0.416529 17.3193C0.224467 17.3193 0.0620284 17.4397 0.0130835 17.6186C-0.03513 17.7948 0.0536779 17.9807 0.217457 18.0724C2.47063 19.3335 5.0407 20 7.65093 20C9.93574 20 12.073 19.5639 14.0033 18.7039C15.773 17.9155 17.3368 16.7885 18.6513 15.3543C19.8758 14.0182 20.8334 12.4758 21.4973 10.77C22.1302 9.14404 22.4647 7.40909 22.4647 5.75268V5.67378C22.4646 5.40781 22.5897 5.15756 22.8079 4.98721C23.6359 4.34061 24.357 3.57947 24.951 2.72495C25.1078 2.49932 24.8605 2.21653 24.6024 2.32662Z" fill="#76A9EA"/>
</svg>
