<svg width="20" height="20" viewBox="0 0 20 20" fill="none" xmlns="http://www.w3.org/2000/svg">
<path id="Vector" d="M17.9972 3.91805C16.1452 1.42809 13.3291 0 10.271 0C8.12102 0 6.08226 0.710925 4.37499 2.05602C3.75726 2.54278 3.19842 3.10562 2.71192 3.72684L2.27812 1.19782C2.23062 0.921252 1.9741 0.736283 1.70565 0.785441L0.4082 1.02113C0.279147 1.04459 0.164455 1.11985 0.0892897 1.2303C0.014124 1.34082 -0.0152572 1.47745 0.00753628 1.61028L1.03825 7.61967C1.08061 7.86634 1.28904 8.03992 1.52422 8.03992C1.55275 8.03992 1.58167 8.03735 1.61072 8.03206L7.4494 6.9712C7.71811 6.92238 7.8975 6.65862 7.85007 6.38205L7.62101 5.04665C7.59822 4.91382 7.52516 4.79577 7.41778 4.71841C7.3104 4.64105 7.17766 4.61087 7.04861 4.63427L4.61557 5.07635C4.9578 4.66003 5.34516 4.28026 5.77659 3.94036C7.07845 2.91469 8.63308 2.3726 10.2725 2.3726C12.6058 2.3726 14.754 3.46173 16.1664 5.36065C17.3698 6.97845 17.8889 8.98179 17.6283 11.0015C17.3676 13.0213 16.3583 14.8158 14.7865 16.0542C13.4809 17.0829 11.9287 17.6266 10.2977 17.6266C9.96854 17.6266 9.63481 17.6038 9.30575 17.5589C7.34341 17.2906 5.59997 16.2519 4.39666 14.634C3.66424 13.6493 3.17201 12.4874 2.97312 11.2739C2.95132 11.1409 2.87905 11.0223 2.77226 10.9441C2.66554 10.8659 2.53287 10.8347 2.40368 10.857L1.10452 11.0826C0.835479 11.1293 0.654185 11.3917 0.699509 11.6687C0.960579 13.2617 1.60591 14.7859 2.56581 16.0765C4.14343 18.1977 6.4293 19.5596 9.00212 19.9113C9.43256 19.9702 9.86939 20 10.3004 20C12.4405 20 14.4764 19.2871 16.1878 17.9386C18.2488 16.3149 19.572 13.9621 19.9137 11.314C20.2556 8.66582 19.5749 6.03923 17.9972 3.91805Z" fill="#777A95"/>
</svg>
