<svg width="15" height="15" viewBox="0 0 15 15" fill="none" xmlns="http://www.w3.org/2000/svg">
<g id="Alarm">
<g id="Group">
<g id="Group_2">
<path id="Vector" d="M1.22133 4.50158C2.06744 3.20979 3.38708 2.25718 4.93086 1.88393C5.04981 1.85542 5.1478 1.7712 5.19367 1.65815C5.23988 1.54476 5.22874 1.41631 5.16385 1.31243C4.66969 0.524643 3.79539 0 2.79657 0C1.25246 0 0 1.2518 0 2.79591C0 3.45131 0.226439 4.05329 0.604601 4.52943C0.680299 4.62545 0.797615 4.67853 0.919846 4.67296C1.04208 4.66739 1.15448 4.60349 1.22133 4.50158Z" fill="#FFA873"/>
<path id="Vector_2" d="M11.316 0C10.3218 0 9.45044 0.519728 8.95529 1.30227C8.88975 1.40582 8.87828 1.53526 8.92448 1.6493C8.97102 1.76367 9.06933 1.84756 9.18959 1.87574C10.7376 2.24014 12.0619 3.1862 12.9152 4.47372C12.983 4.57596 13.0961 4.63921 13.219 4.64347C13.3418 4.64806 13.4585 4.593 13.5339 4.49568C13.896 4.0251 14.1126 3.43656 14.1126 2.79624C14.1116 1.2518 12.8601 0 11.316 0Z" fill="#FFA873"/>
<path id="Vector_3" d="M13.2382 8.56327C13.2382 7.48384 12.9574 6.46929 12.4678 5.58647C11.5604 3.95126 9.93079 2.77581 8.01278 2.48154C7.70704 2.43468 7.39671 2.40289 7.07786 2.40289C6.74492 2.40289 6.4205 2.43697 6.10165 2.48809C4.19183 2.79449 2.57039 3.97486 1.6725 5.61203C1.19176 6.48895 0.91748 7.49433 0.91748 8.56327C0.91748 10.3938 1.7246 12.0359 2.99606 13.1645L2.47699 13.8956C2.2535 14.2105 2.32756 14.6463 2.64248 14.8705C2.76537 14.9576 2.9066 14.9999 3.04653 14.9999C3.26543 14.9999 3.48106 14.8973 3.61705 14.7056L4.1358 13.9749C5.01042 14.4523 6.01285 14.7243 7.07786 14.7243C8.14255 14.7243 9.14498 14.4523 10.0196 13.9749L10.5383 14.7056C10.6747 14.8977 10.89 14.9999 11.1089 14.9999C11.2488 14.9999 11.3897 14.9576 11.5126 14.8705C11.8275 14.6463 11.9019 14.2105 11.6784 13.8956L11.1593 13.1645C12.4308 12.0359 13.2382 10.3938 13.2382 8.56327ZM7.07819 13.0009C4.63095 13.0009 2.64051 11.0105 2.64051 8.56327C2.64051 7.80039 2.83418 7.08241 3.17433 6.45454C3.82186 5.26041 5.00288 4.40021 6.39429 4.1836C6.61777 4.14886 6.84487 4.12527 7.07819 4.12527C7.29775 4.12527 7.51239 4.14657 7.72375 4.1777C9.12695 4.3835 10.3208 5.2437 10.9758 6.44307C11.3199 7.07323 11.5155 7.79515 11.5155 8.56295C11.5155 11.0105 9.5251 13.0009 7.07819 13.0009Z" fill="#FFA873"/>
<path id="Vector_4" d="M9.56418 9.60144L7.8713 8.55609C7.83623 8.35816 7.72908 8.18743 7.57866 8.06651L7.656 5.94238C7.6655 5.67104 7.45381 5.44329 7.18281 5.43313C6.91246 5.42068 6.68372 5.635 6.67356 5.90633L6.5959 8.03276C6.38585 8.18087 6.24756 8.42468 6.24756 8.70159C6.24756 9.15414 6.61425 9.5205 7.0668 9.5205C7.19559 9.5205 7.31585 9.48806 7.42399 9.4353L9.04773 10.4387C9.12834 10.4879 9.21781 10.5118 9.30563 10.5118C9.47046 10.5118 9.63103 10.4292 9.72443 10.2788C9.8673 10.0471 9.79521 9.74432 9.56418 9.60144Z" fill="#FFA873"/>
</g>
</g>
</g>
</svg>
