<svg width="10" height="10" viewBox="0 0 10 10" fill="none" xmlns="http://www.w3.org/2000/svg">
<path id="Path" d="M3.61431 10C3.45977 9.99906 3.30733 9.96413 3.16779 9.89769C3.02826 9.83124 2.90505 9.73491 2.80691 9.61552L0.256295 6.56586C0.0723698 6.34458 -0.0184097 6.06051 0.00310985 5.77359C0.0246294 5.48666 0.156765 5.21931 0.371638 5.02795C0.476762 4.9349 0.599556 4.86399 0.73269 4.81945C0.865823 4.77491 1.00657 4.75765 1.14652 4.7687C1.28647 4.77976 1.42276 4.81889 1.54725 4.88378C1.67174 4.94867 1.78188 5.03797 1.8711 5.14637L3.53973 7.14565L8.81321 0.61877C9.62984 -0.553883 10.4841 0.0958823 9.66367 1.27315L4.48092 9.54324C4.38882 9.67713 4.2671 9.78799 4.1252 9.86721C3.98331 9.94642 3.82506 9.99186 3.66276 10H3.61431Z" fill="#777A95"/>
</svg>
