<svg width="12" height="12" viewBox="0 0 12 12" fill="none" xmlns="http://www.w3.org/2000/svg">
<g id="Icon">
<path id="Vector" d="M11.6909 8.85439L10.1995 7.36266C9.80161 6.96474 9.10638 6.96406 8.7078 7.36266L8.45911 7.61136L11.4423 10.5944L11.6909 10.3458C12.1039 9.93285 12.1025 9.26525 11.6909 8.85439Z" fill="white"/>
<path id="Vector_2" d="M7.94805 8.09462C7.63422 8.33774 7.18652 8.32804 6.89976 8.04065L3.95091 5.08976C3.6635 4.80235 3.65382 4.35432 3.89694 4.04126L0.920576 1.06506C-0.359842 2.55757 -0.309779 4.80647 1.10339 6.21964L5.76988 10.8882C7.12598 12.2442 9.34727 12.4241 10.9246 11.0709L7.94805 8.09462Z" fill="white"/>
<path id="Vector_3" d="M4.62892 1.79043L3.13752 0.298697C2.7396 -0.0992258 2.04437 -0.0999055 1.64579 0.298697L1.39709 0.547393L4.38032 3.53046L4.62892 3.28183C5.04185 2.86891 5.04049 2.20131 4.62892 1.79043Z" fill="white"/>
</g>
</svg>
