<svg width="41" height="16" viewBox="0 0 41 16" fill="none" xmlns="http://www.w3.org/2000/svg">
<g id="Vector">
<path d="M2.98795 15.937L8.96455 15.9376C10.559 15.9376 11.9532 14.5461 11.9532 12.949L11.9532 11.9525L-5.95182e-05 11.9528L-6.10352e-05 12.949C-1.41546e-05 14.6036 1.34026 15.9384 2.98795 15.937Z" fill="white"/>
<path d="M12.0086 9.96064C12.1502 8.84482 13.0666 7.9673 14.2169 7.96857L26.0368 7.97266C27.1884 7.97266 28.1054 8.85088 28.2456 9.96515L40.1713 9.96482C39.7464 4.40938 35.1405 0.00408852 29.478 0.00408772L10.7757 0C5.34199 9.30981e-05 0.531375 4.09003 0.082379 9.96106L12.0086 9.96064Z" fill="white"/>
<path d="M31.2884 15.9412L37.265 15.9418C38.8594 15.9418 40.2536 14.5503 40.2536 12.9532V11.9567L28.3004 11.957L28.3004 12.9532C28.3004 14.6078 29.6406 15.9425 31.2884 15.9412Z" fill="white"/>
</g>
</svg>
