<svg width="12" height="20" viewBox="0 0 12 20" fill="none" xmlns="http://www.w3.org/2000/svg">
<path id="Vector" d="M11.1429 0.00416134L8.36565 0C5.2455 0 3.22911 1.9319 3.22911 4.92203V7.19141H0.436698C0.1954 7.19141 0 7.37409 0 7.59943V10.8875C0 11.1128 0.195623 11.2953 0.436698 11.2953H3.22911V19.5922C3.22911 19.8175 3.42451 20 3.66581 20H7.30911C7.55041 20 7.74581 19.8173 7.74581 19.5922V11.2953H11.0108C11.2521 11.2953 11.4475 11.1128 11.4475 10.8875L11.4488 7.59943C11.4488 7.49123 11.4027 7.38762 11.3209 7.31105C11.2392 7.23448 11.1278 7.19141 11.0119 7.19141H7.74581V5.26763C7.74581 4.34298 7.98176 3.87358 9.27158 3.87358L11.1425 3.87295C11.3835 3.87295 11.5789 3.69027 11.5789 3.46514V0.411972C11.5789 0.187052 11.3838 0.00457747 11.1429 0.00416134Z" fill="#345287"/>
</svg>
