<svg width="50" height="40" viewBox="0 0 50 40" fill="none" xmlns="http://www.w3.org/2000/svg">
<g id="Icon">
<g id="Group">
<g id="Group_2">
<path id="Vector" d="M45.6056 0H4.39465C3.71818 0 3.08488 0.174668 2.51193 0.462566L24.9025 23.9785L29.9209 18.9131C29.9209 18.9131 29.9213 18.9126 29.9214 18.9124C29.9215 18.9122 29.9219 18.912 29.9219 18.912L47.489 0.462976C46.916 0.174873 46.2823 0 45.6056 0Z" fill="#5554DB"/>
</g>
</g>
<g id="Group_3">
<g id="Group_4">
<path id="Vector_2" d="M49.56 2.63867L33.0284 20.0002L49.5594 37.362C49.8335 36.7602 49.9998 36.0951 49.9998 35.3847V4.6153C49.9998 3.90524 49.8339 3.24021 49.56 2.63867Z" fill="#5554DB"/>
</g>
</g>
<g id="Group_5">
<g id="Group_6">
<path id="Vector_3" d="M0.44043 2.63794C0.166309 3.23969 0 3.90482 0 4.61528V35.3846C0 36.0947 0.166113 36.7599 0.440039 37.3615L16.9716 20L0.44043 2.63794Z" fill="#5554DB"/>
</g>
</g>
<g id="Group_7">
<g id="Group_8">
<path id="Vector_4" d="M30.9573 22.176L25.9382 27.242C25.6521 27.5425 25.2773 27.6927 24.9025 27.6927C24.5278 27.6927 24.1529 27.5425 23.8669 27.242L19.0431 22.1758L2.51123 39.5374C3.08428 39.8255 3.71797 40.0004 4.39463 40.0004H45.6056C46.282 40.0004 46.9153 39.8257 47.4883 39.5378L30.9573 22.176Z" fill="#5554DB"/>
</g>
</g>
</g>
</svg>
