<svg width="23" height="23" viewBox="0 0 23 23" fill="none" xmlns="http://www.w3.org/2000/svg">
<g id="Icon">
<g id="Profile">
<path id="Ellipse_744" d="M11.5001 12.5649C14.4773 12.5649 16.8908 10.1812 16.8908 7.24082C16.8908 4.30042 14.4773 1.91675 11.5001 1.91675C8.52287 1.91675 6.10938 4.30042 6.10938 7.24082C6.10938 10.1812 8.52287 12.5649 11.5001 12.5649Z" fill="#5554DB"/>
<path id="Path_34198" d="M20.1156 17.8978V17.8978C20.1205 17.822 20.1205 17.746 20.1156 17.6702C20.0943 17.3902 20.0148 17.1167 19.8817 16.8651C19.3577 15.8411 17.8885 15.3772 16.6626 15.1147C15.788 14.9326 14.8994 14.8155 14.005 14.7646L13.0692 14.6946H12.6481H12.1241H10.8702H10.3461H9.92504L8.98926 14.7646C8.09491 14.8155 7.20627 14.9326 6.33166 15.1147C5.10579 15.3422 3.63663 15.8148 3.11259 16.8651C2.97944 17.1167 2.89998 17.3902 2.87865 17.6702C2.87378 17.746 2.87378 17.822 2.87865 17.8978V17.8978C2.87416 17.9736 2.87416 18.0495 2.87865 18.1253C2.9041 18.403 2.98672 18.6734 3.12195 18.9217C3.64598 19.9457 5.11515 20.4096 6.34102 20.6721C7.21726 20.8457 8.10522 20.9626 8.99862 21.0222L9.9344 21.0835H10.159H10.3555H12.6575H12.854H13.0786L14.0144 21.0222C14.9078 20.9626 15.7957 20.8457 16.672 20.6721C17.8979 20.4358 19.367 19.972 19.8911 18.9217C20.02 18.6655 20.0992 18.39 20.125 18.1078C20.1262 18.0377 20.1231 17.9676 20.1156 17.8978Z" fill="#5554DB"/>
</g>
</g>
</svg>
