<svg width="16" height="20" viewBox="0 0 16 20" fill="none" xmlns="http://www.w3.org/2000/svg">
<g id="Icon">
<path id="Vector" d="M7.82921 8.96908C8.73048 8.96908 9.46133 8.23823 9.46133 7.33696C9.46133 6.43548 8.73048 5.70483 7.82921 5.70483C6.92773 5.70483 6.19708 6.43548 6.19708 7.33696C6.19708 8.23823 6.92773 8.96908 7.82921 8.96908Z" fill="#129A7F"/>
<path id="Vector_2" d="M7.82917 11.5648C7.04245 11.5605 6.28751 11.8745 5.73578 12.4353C5.24983 12.9415 4.94866 13.5968 4.88086 14.2953H10.772C10.7076 13.596 10.4061 12.9397 9.91709 12.4353C9.3688 11.8728 8.61467 11.5585 7.82917 11.5648Z" fill="#129A7F"/>
<path id="Vector_3" d="M13.9534 0H1.70984C0.765868 0.00101198 0.00101198 0.765868 0 1.70984V2.98454H1.36779C1.56817 2.98454 1.73049 3.14686 1.73049 3.34723C1.73049 3.5474 1.56817 3.70993 1.36779 3.70993H0V7.41965H1.36779C1.56817 7.41965 1.73049 7.58217 1.73049 7.78234C1.73049 7.98272 1.56817 8.14504 1.36779 8.14504H0V11.855H1.36779C1.56817 11.855 1.73049 12.0173 1.73049 12.2177C1.73049 12.4178 1.56817 12.5804 1.36779 12.5804H0V16.2901H1.36779C1.56817 16.2901 1.73049 16.4526 1.73049 16.6528C1.73049 16.8531 1.56817 17.0155 1.36779 17.0155H0V18.2902C0.00101198 19.2341 0.765868 19.999 1.70984 20H13.9534C14.8974 19.999 15.6622 19.2341 15.6633 18.2902V1.70984C15.6622 0.765868 14.8974 0.00101198 13.9534 0ZM7.8291 4.97409C9.13111 4.97409 10.1866 6.02959 10.1866 7.33161C10.1866 8.63362 9.13111 9.68912 7.8291 9.68912C6.52708 9.68912 5.47158 8.63362 5.47158 7.33161C5.4726 6.03 6.52748 4.97511 7.8291 4.97409ZM11.1555 15.0259H4.50251C4.40617 15.0265 4.31367 14.9885 4.24547 14.9203C4.17726 14.8523 4.13921 14.7596 4.13982 14.6632C4.13982 13.6114 4.52336 12.6425 5.21758 11.9327C5.90815 11.2362 6.84828 10.8446 7.8291 10.8446C8.80971 10.8446 9.74984 11.2362 10.4404 11.9327C11.1346 12.6425 11.5182 13.6114 11.5182 14.6632C11.5188 14.7596 11.4807 14.8523 11.4125 14.9203C11.3443 14.9885 11.2518 15.0265 11.1555 15.0259Z" fill="#129A7F"/>
</g>
</svg>
