<svg width="48" height="40" viewBox="0 0 48 40" fill="none" xmlns="http://www.w3.org/2000/svg">
<g id="Group 598">
<path id="Vector" d="M30.9094 21.818L37.2731 21.818C38.0308 21.818 38.6749 22.0831 39.2052 22.6134C39.7353 23.1438 40.0007 23.7877 40.0007 24.5455L40.0007 25.4542C40.0007 27.4619 39.2903 29.1758 37.8697 30.5964C36.4491 32.0165 34.735 32.7269 32.7275 32.7269L30.9094 32.7269C30.4171 32.7269 29.9911 32.9069 29.6311 33.2666C29.2713 33.6265 29.0914 34.0525 29.0914 34.545L29.0914 38.1816C29.0914 38.674 29.2714 39.1004 29.6311 39.4603C29.991 39.8197 30.417 40 30.9094 40L32.7275 40C34.6974 40 36.5767 39.6161 38.3667 38.8494C40.1565 38.0822 41.7046 37.0452 43.0116 35.7382C44.3185 34.4318 45.3552 32.8836 46.1223 31.0936C46.8894 29.3038 47.273 27.424 47.273 25.4543L47.273 5.45475C47.273 3.9388 46.7429 2.65161 45.6823 1.59059C44.6216 0.530166 43.3334 -3.4441e-07 41.8183 -4.76861e-07L30.9087 -1.43061e-06C29.3938 -1.56305e-06 28.106 0.530165 27.0451 1.59059C25.9847 2.65161 25.4544 3.9388 25.4544 5.45475L25.4544 16.3633C25.4544 17.879 25.9847 19.1662 27.0458 20.2273C28.1062 21.2876 29.3944 21.818 30.9094 21.818Z" fill="#FFA873"/>
<path id="Vector_2" d="M1.59002 20.2273C2.65034 21.2876 3.93823 21.818 5.45359 21.818L11.8172 21.818C12.5744 21.818 13.2191 22.0831 13.7486 22.6134C14.2792 23.1438 14.544 23.7877 14.544 24.5455L14.544 25.4542C14.544 27.4619 13.8337 29.1758 12.4137 30.5964C10.9937 32.0165 9.27964 32.7269 7.27114 32.7269L5.45349 32.7269C4.96104 32.7269 4.53476 32.9069 4.17505 33.2666C3.81554 33.6265 3.63494 34.0525 3.63494 34.545L3.63494 38.1816C3.63494 38.674 3.81544 39.1004 4.17505 39.4603C4.53466 39.8197 4.96094 40 5.45349 40L7.27114 40C9.24213 40 11.1211 39.6161 12.9116 38.8494C14.7011 38.0822 16.2487 37.0452 17.5556 35.7382C18.8626 34.4318 19.8999 32.8836 20.6667 31.0936C21.4335 29.3038 21.8176 27.424 21.8176 25.4543L21.8176 5.45475C21.8176 3.9388 21.2871 2.65161 20.2268 1.59059C19.1663 0.530166 17.8784 -3.44375e-07 16.3632 -4.76843e-07L5.45419 -1.43054e-06C3.93883 -1.56301e-06 2.65104 0.530165 1.59072 1.59059C0.5296 2.65161 0.000136667 3.9388 0.000136534 5.45475L0.000135581 16.3633C3.62661e-05 17.8791 0.5296 19.1662 1.59002 20.2273Z" fill="#FFA873"/>
</g>
</svg>
