<svg width="39" height="38" viewBox="0 0 39 38" fill="none" xmlns="http://www.w3.org/2000/svg">
<g id="Icon">
<g id="Group">
<path id="Vector" d="M37.6619 5.30909C37.4757 5.2363 37.2967 5.19976 37.1247 5.19976C36.7379 5.19976 36.416 5.33859 36.1579 5.61549L27.4997 14.4095V10.8001C27.4997 9.06447 26.8945 7.58083 25.6842 6.34842C24.4738 5.11617 23.0168 4.5 21.312 4.5H6.18734C4.48308 4.5 3.02565 5.11617 1.81518 6.34842C0.605159 7.58083 0 9.06447 0 10.8001V26.2001C0 27.9356 0.605159 29.4192 1.81525 30.6515C3.02572 31.8838 4.48316 32.5 6.18742 32.5H21.3122C23.0169 32.5 24.474 31.8838 25.6844 30.6515C26.8947 29.4192 27.4998 27.9357 27.4998 26.2001V22.5686L36.1581 31.3844C36.4161 31.6613 36.738 31.8 37.1248 31.8C37.2968 31.8 37.4758 31.7635 37.662 31.6909C38.2209 31.4429 38.5 31.0128 38.5 30.4003V6.60004C38.4998 5.98724 38.2207 5.55711 37.6619 5.30909Z" fill="white"/>
</g>
<path id="Vector 1" d="M10 26L10 11" stroke="#2AA48C" stroke-width="2" stroke-linecap="round"/>
<path id="Vector 2" d="M16 22.5L16 14.5" stroke="#2AA48C" stroke-width="2" stroke-linecap="round"/>
<rect id="Rectangle 1524" x="26.4753" y="0.176758" width="3" height="41.9011" rx="1.5" transform="rotate(30 26.4753 0.176758)" fill="white"/>
<rect id="Rectangle 1525" x="26.8044" y="5.60693" width="3" height="32.825" rx="1.5" transform="rotate(30 26.8044 5.60693)" fill="#2AA48C"/>
</g>
</svg>
