<svg width="17" height="12" viewBox="0 0 17 12" fill="none" xmlns="http://www.w3.org/2000/svg">
<g id="Icon">
<path id="Vector" d="M16.1408 0.346754C16.061 0.315559 15.9843 0.299896 15.9106 0.299896C15.7448 0.299896 15.6068 0.359396 15.4963 0.478067L11.7856 4.24691V2.70005C11.7856 1.9562 11.5262 1.32036 11.0075 0.792181C10.4888 0.264071 9.86435 0 9.13373 0H2.65172C1.92132 0 1.29671 0.264071 0.777933 0.792181C0.259354 1.32036 0 1.9562 0 2.70005V9.30005C0 10.0438 0.259354 10.6796 0.777965 11.2078C1.29674 11.7359 1.92135 12 2.65175 12H9.13379C9.86438 12 10.4888 11.7359 11.0076 11.2078C11.5263 10.6796 11.7856 10.0439 11.7856 9.30005V7.7437L15.4963 11.5219C15.6069 11.6405 15.7449 11.7 15.9106 11.7C15.9844 11.7 16.0611 11.6844 16.1409 11.6532C16.3804 11.547 16.5 11.3626 16.5 11.1001V0.900016C16.4999 0.637389 16.3803 0.453045 16.1408 0.346754Z" fill="white"/>
<path id="line" d="M4.28571 9.21436L4.28571 2.78578" stroke="#A079EC" stroke-linecap="round"/>
<path id="line_2" d="M6.85714 7.71436L6.85714 4.28578" stroke="#A079EC" stroke-linecap="round"/>
</g>
</svg>
