<svg width="29" height="21" viewBox="0 0 29 21" fill="none" xmlns="http://www.w3.org/2000/svg">
<g id="Icon">
<g id="Group">
<path id="Vector" d="M27.5209 1.40129C27.3867 1.34883 27.2577 1.32249 27.1337 1.32249C26.8549 1.32249 26.6229 1.42255 26.4369 1.62214L20.1962 7.96064V5.3591C20.1962 4.10809 19.76 3.03871 18.8876 2.15042C18.0152 1.26223 16.965 0.818115 15.7363 0.818115H4.83471C3.60631 0.818115 2.55582 1.26223 1.68334 2.15042C0.811186 3.03871 0.375 4.10809 0.375 5.3591V16.4591C0.375 17.71 0.811186 18.7793 1.6834 19.6676C2.55588 20.5558 3.60637 20.9999 4.83476 20.9999H15.7364C16.9651 20.9999 18.0153 20.5558 18.8877 19.6676C19.7601 18.7793 20.1963 17.7101 20.1963 16.4591V13.8416L26.437 20.1959C26.623 20.3954 26.855 20.4954 27.1338 20.4954C27.2578 20.4954 27.3868 20.4691 27.521 20.4168C27.9238 20.238 28.125 19.928 28.125 19.4865V2.33178C28.1248 1.89009 27.9237 1.58006 27.5209 1.40129Z" fill="#A079EC"/>
</g>
<path id="Vector_2" d="M7.58276 16.3149V5.50317M11.9074 13.7922L11.9074 8.02597" stroke="white" stroke-width="1.7" stroke-linecap="round"/>
</g>
</svg>
