<svg width="25" height="33" viewBox="0 0 25 33" fill="none" xmlns="http://www.w3.org/2000/svg">
<g id="Icon">
<g id="Group 594">
<g id="Group">
<g id="Group_2">
<path id="Vector" d="M22.4378 17.0269C22.4378 16.3869 21.9578 15.8975 21.3301 15.8975C20.7024 15.8975 20.2224 16.3869 20.2224 17.0269C20.2224 21.4316 16.7146 25.008 12.3946 25.008C8.07449 25.008 4.56674 21.4316 4.56674 17.0269C4.56674 16.3869 4.08673 15.8975 3.45903 15.8975C2.83133 15.8975 2.35132 16.3869 2.35132 17.0269C2.35132 22.2598 6.19138 26.6645 11.2868 27.2292L11.2868 30.241L7.26217 30.241C6.63446 30.241 6.15446 30.7304 6.15446 31.3704C6.15446 32.0104 6.63446 32.4998 7.26217 32.4998L17.5269 32.4998C18.1546 32.4998 18.6347 32.0104 18.6347 31.3704C18.6347 30.7304 18.1546 30.241 17.5269 30.241L13.5023 30.241L13.5023 27.2292C18.5977 26.6645 22.4378 22.2598 22.4378 17.0269Z" fill="white"/>
</g>
</g>
<g id="Group_3">
<g id="Group_4">
<path id="Vector_2" d="M12.3945 0.5C8.99755 0.5 6.22827 3.32353 6.22827 6.78706L6.22827 16.9894C6.22827 20.4906 8.99755 23.2765 12.3945 23.3141C15.7915 23.3141 18.5608 20.4906 18.5608 17.0271L18.5608 6.78706C18.5608 3.32353 15.7915 0.5 12.3945 0.5Z" fill="white"/>
</g>
</g>
</g>
<rect id="Rectangle 1515" width="2.02842" height="33.6749" rx="1.01421" transform="matrix(0.700214 0.713933 -0.700214 0.713933 23.5796 3.42041)" fill="white"/>
<rect id="Rectangle 1516" width="2.02842" height="21.2984" rx="1.01421" transform="matrix(0.700214 0.713933 -0.700214 0.713933 19.6501 10.3232)" fill="#2AA48C"/>
</g>
</svg>
