<svg width="20" height="33" viewBox="0 0 20 33" fill="none" xmlns="http://www.w3.org/2000/svg">
<g id="Voice Icon">
<g id="Group">
<g id="Group_2">
<path id="Vector" d="M20 17.0269C20 16.3869 19.5221 15.8975 18.8971 15.8975C18.2721 15.8975 17.7941 16.3869 17.7941 17.0269C17.7941 21.4316 14.3015 25.008 10 25.008C5.69853 25.008 2.20588 21.4316 2.20588 17.0269C2.20588 16.3869 1.72794 15.8975 1.10294 15.8975C0.477941 15.8975 -1.04909e-08 16.3869 -2.42098e-08 17.0269C-1.36382e-07 22.2598 3.82353 26.6645 8.89706 27.2292L8.89706 30.241L4.88971 30.241C4.26471 30.241 3.78677 30.7304 3.78677 31.3704C3.78676 32.0104 4.26471 32.4998 4.88971 32.4998L15.1103 32.4998C15.7353 32.4998 16.2132 32.0104 16.2132 31.3704C16.2132 30.7304 15.7353 30.241 15.1103 30.241L11.1029 30.241L11.1029 27.2292C16.1765 26.6645 20 22.2598 20 17.0269Z" fill="white"/>
</g>
</g>
<g id="Group_3">
<g id="Group_4">
<path id="Vector_2" d="M10.0001 0.5C6.61771 0.5 3.86035 3.32353 3.86035 6.78706L3.86035 16.9894C3.86035 20.4906 6.6177 23.2765 10.0001 23.3141C13.3824 23.3141 16.1398 20.4906 16.1398 17.0271L16.1398 6.78706C16.1398 3.32353 13.3824 0.5 10.0001 0.5Z" fill="white"/>
</g>
</g>
</g>
</svg>
