<svg width="24" height="26" viewBox="0 0 24 26" fill="none" xmlns="http://www.w3.org/2000/svg">
<g id="Icon">
<path id="Fill 1" opacity="0.4" fill-rule="evenodd" clip-rule="evenodd" d="M7.92937 4.00592H16.1196V2.14664H7.92937V4.00592ZM6.0662 2.22305V2.2323C5.42686 2.28899 4.79438 2.41279 4.17905 2.59907V2.59213C4.16076 2.59963 4.14354 2.6054 4.12701 2.61094C4.10531 2.61821 4.08481 2.62508 4.06468 2.63493C4.0155 2.6465 3.96746 2.66386 3.92172 2.68584C3.78676 2.72865 3.6518 2.77956 3.52484 2.83162C3.4911 2.84435 3.45736 2.8591 3.42362 2.87385C3.38988 2.8886 3.35614 2.90336 3.3224 2.91608C3.27608 2.93749 3.22776 2.96092 3.17944 2.98435L3.17943 2.98435C3.13111 3.00778 3.08279 3.0312 3.03647 3.05261L2.80772 3.18103C2.76543 3.20206 2.72628 3.22673 2.68634 3.2519L2.68633 3.2519C2.66255 3.26689 2.63848 3.28205 2.61329 3.29673C2.26903 3.51309 1.94993 3.76647 1.66171 4.05456L1.64455 4.07192C1.6067 4.11494 1.569 4.15669 1.53182 4.19787L1.53182 4.19787C1.46901 4.26743 1.40766 4.33536 1.34947 4.40513L1.33232 4.42133C0.396747 5.68013 -0.0721809 7.23166 0.00902376 8.80401V9.30267H1.85614V8.79938C1.85614 6.60804 2.57212 5.24395 4.16533 4.54512C4.77379 4.29406 5.41657 4.13902 6.07078 4.08233H6.08793V2.23114L6.0662 2.22305ZM22.664 4.39821L22.672 4.4144C23.6064 5.67437 24.0731 7.22705 23.9907 8.7994V9.30269H22.1448V8.78667C22.1836 7.85876 21.9926 6.93548 21.5878 6.10129C21.1989 5.38743 20.5767 4.83323 19.8253 4.53242C19.2271 4.28135 18.5935 4.12516 17.9473 4.06962V2.22769C18.5866 2.28554 19.2191 2.40818 19.8356 2.59446V2.5852C19.8702 2.60053 19.8966 2.60964 19.942 2.62528L19.9499 2.62801C19.971 2.63527 19.9906 2.64252 20.01 2.6497C20.0371 2.65968 20.0636 2.66949 20.0929 2.67892C20.2194 2.71937 20.3376 2.76705 20.4593 2.81611L20.4806 2.8247C20.5368 2.84393 20.5897 2.86777 20.6373 2.88926C20.6528 2.89622 20.6677 2.90293 20.6819 2.90916C20.7826 2.95197 20.8855 3.00288 20.9679 3.04568C21.0228 3.07347 21.0763 3.1032 21.1264 3.13109C21.1536 3.14617 21.1797 3.16071 21.2046 3.17411C21.2456 3.19617 21.2812 3.21978 21.3155 3.24248C21.3405 3.25906 21.3648 3.27516 21.3899 3.28981C21.7353 3.50732 22.0578 3.76186 22.3495 4.04764L22.3598 4.06499C22.4673 4.17028 22.5691 4.28135 22.664 4.39821Z" fill="#129A7F"/>
<path id="Fill 4" d="M18.0001 0.932006V5.029C18.0001 5.54521 17.5705 5.96332 17.0401 5.96332C16.5097 5.96332 16.0801 5.54521 16.0801 5.029V0.94135C16.0753 0.425138 16.5025 0.00352574 17.0329 2.20438e-05C17.5633 -0.00348166 17.9965 0.411123 18.0001 0.927335V0.932006Z" fill="#129A7F"/>
<path id="Fill 6" d="M7.92 0.94686V5.03372C7.92 5.55217 7.48988 5.97254 6.9594 5.97254C6.42892 5.97254 6 5.55217 6 5.03372V0.94686C6 0.428412 6.42892 0.00921631 6.9594 0.00921631C7.48988 0.00921631 7.92 0.428412 7.92 0.94686Z" fill="#129A7F"/>
<path id="Fill 8" fill-rule="evenodd" clip-rule="evenodd" d="M0 19.3831V9.30261H24V19.3831C24 23.779 21.4821 25.9999 16.4921 25.9999H7.49642C2.51788 25.9999 0 23.779 0 19.3831ZM5.41344 14.9067C5.41344 15.5166 5.90557 16.0114 6.51215 16.0114C7.13018 16.0114 7.62231 15.5051 7.61086 14.8952C7.61086 14.2853 7.11873 13.7905 6.5236 13.7905H6.51215C5.90557 13.7905 5.41344 14.2968 5.41344 14.9067ZM10.8956 14.9067C10.8956 15.5166 11.3992 16.0114 12.0058 16.0114C12.6124 16.0114 13.1045 15.5166 13.1045 14.8952C13.1045 14.2968 12.6124 13.802 12.0058 13.7905H11.9944C11.3878 13.802 10.8956 14.2968 10.8956 14.9067ZM17.488 16.0114C16.8814 16.0114 16.3892 15.5166 16.3892 14.9067C16.3892 14.2968 16.8699 13.802 17.488 13.802C18.0945 13.802 18.5867 14.2968 18.5867 14.9067C18.5867 15.5166 18.0945 16.0114 17.488 16.0114ZM17.4879 20.7294C16.8813 20.7294 16.3892 20.2346 16.3777 19.6247C16.3777 19.0148 16.8699 18.52 17.4764 18.52H17.4879C18.0945 18.52 18.5866 19.0148 18.5866 19.6247C18.5866 20.2346 18.0945 20.7294 17.4879 20.7294ZM12.0058 20.7295C11.3992 20.7295 10.8956 20.2347 10.8956 19.6248C10.8956 19.0149 11.3878 18.5201 11.9944 18.5086H12.0058C12.6124 18.5201 13.0931 19.0149 13.1045 19.6133C13.1045 20.2347 12.6124 20.7295 12.0058 20.7295ZM6.51219 20.7296C5.90561 20.7296 5.41348 20.2347 5.41348 19.6248C5.40204 19.015 5.89417 18.5086 6.51219 18.5086C7.11878 18.5086 7.61091 19.0034 7.61091 19.6133C7.61091 20.2232 7.11878 20.7296 6.51219 20.7296Z" fill="#129A7F"/>
</g>
</svg>
