<svg width="24" height="20" viewBox="0 0 24 20" fill="none" xmlns="http://www.w3.org/2000/svg">
<g id="Icon">
<path id="Vector" d="M12 1.90476C11.4477 1.90476 11 1.47837 11 0.952381C11 0.426395 11.4477 0 12 0C12.5523 0 13 0.426395 13 0.952381C13 1.47837 12.5523 1.90476 12 1.90476Z" fill="#FFA873"/>
<path id="Vector_2" d="M1 6.66672C0.447715 6.66672 0 6.24033 0 5.71434C0 5.18836 0.447715 4.76196 1 4.76196C1.55228 4.76196 2 5.18836 2 5.71434C2 6.24033 1.55228 6.66672 1 6.66672Z" fill="#FFA873"/>
<path id="Vector_3" d="M23 6.66672C22.4477 6.66672 22 6.24033 22 5.71434C22 5.18836 22.4477 4.76196 23 4.76196C23.5523 4.76196 24 5.18836 24 5.71434C24 6.24033 23.5523 6.66672 23 6.66672Z" fill="#FFA873"/>
<path id="Vector_4" d="M21.0244 16.1904H2.97503L1.02378 7.82557C0.980484 7.63999 0.996492 7.44633 1.06974 7.2695C1.14299 7.09266 1.27013 6.94075 1.43479 6.83331C1.59946 6.72588 1.79412 6.66783 1.99371 6.66664C2.19331 6.66545 2.38871 6.72117 2.55478 6.82664L7.61253 10.0376L11.1057 3.38354C11.1887 3.22537 11.3164 3.09235 11.4743 2.99939C11.6323 2.90642 11.8143 2.85718 12 2.85718C12.1857 2.85718 12.3677 2.90642 12.5257 2.99939C12.6837 3.09235 12.8113 3.22537 12.8944 3.38354L16.3875 10.0376L21.4454 6.82664C21.6115 6.72121 21.8069 6.66552 22.0064 6.66673C22.206 6.66794 22.4006 6.726 22.5653 6.83343C22.7299 6.94086 22.857 7.09275 22.9303 7.26956C23.0035 7.44637 23.0195 7.64001 22.9763 7.82557L21.0244 16.1904Z" fill="#FFA873"/>
<path id="Vector_5" d="M21 17.1428V19.0476C21 19.3002 20.8946 19.5424 20.7071 19.721C20.5196 19.8996 20.2652 20 20 20H4C3.73479 20 3.48043 19.8996 3.29289 19.721C3.10536 19.5424 3 19.3002 3 19.0476V17.1428H21Z" fill="#FFA873"/>
</g>
</svg>
