<svg width="14" height="12" viewBox="0 0 14 12" fill="none" xmlns="http://www.w3.org/2000/svg">
<g id="Icon">
<path id="Vector" d="M12.3135 3.2002H10.3359V6.00047C10.3359 7.10458 9.45 8.00067 8.3584 8.00067H4.70654L3.95508 8.50471V9.20078C3.95508 9.86482 4.48503 10.4009 5.1416 10.4009H9.03074L11.301 11.937C11.6108 12.111 11.918 11.8994 11.918 11.601V10.4009H12.3135C12.97 10.4009 13.5 9.86482 13.5 9.20078V4.40031C13.5 3.73625 12.97 3.2002 12.3135 3.2002Z" fill="white"/>
<path id="Vector_2" d="M8.3584 0H1.18652C0.529954 0 0 0.536026 0 1.20012V6.00059C0 6.66463 0.529954 7.2007 1.18652 7.2007H1.58203V8.40082C1.58203 8.68984 1.8779 8.89914 2.16738 8.75286C2.17529 8.74485 2.19114 8.74486 2.19905 8.73683C4.37476 7.26108 3.88716 7.59013 4.37434 7.26468C4.4376 7.22468 4.50879 7.2007 4.58789 7.2007H8.3584C9.01497 7.2007 9.54492 6.66463 9.54492 6.00059V1.20012C9.54492 0.536026 9.01497 0 8.3584 0ZM5.19434 4.80047H1.97754C1.45618 4.80047 1.45404 4.00039 1.97754 4.00039H5.19434C5.71569 4.00039 5.71783 4.80047 5.19434 4.80047ZM7.56738 3.20031H1.97754C1.45618 3.20031 1.45404 2.40023 1.97754 2.40023H7.56738C8.08874 2.40023 8.09088 3.20031 7.56738 3.20031Z" fill="white"/>
</g>
</svg>
