<svg width="23" height="20" viewBox="0 0 23 20" fill="none" xmlns="http://www.w3.org/2000/svg">
<g id="Group">
<path id="Vector" d="M22.9088 18.2472C22.9078 18.2442 22.9069 18.2412 22.9059 18.2382L21.9934 15.4656V8.67603C21.9934 7.56273 21.0876 6.65698 19.9743 6.65698H14.0804V9.96059C14.0804 11.8161 12.5708 13.3257 10.7153 13.3257H10.238V16.5727C10.238 17.686 11.1438 18.5918 12.2571 18.5918H19.1068L20.8698 19.765C21.1016 19.9218 21.3637 20 21.6252 20C21.9056 20 22.1855 19.9102 22.4266 19.7312C22.8936 19.3847 23.0828 18.8022 22.9088 18.2472ZM18.3276 15.8562C17.9799 15.9875 17.5915 15.812 17.4603 15.4642L17.1672 14.6876H15.1185L14.822 15.4661C14.7197 15.7346 14.4641 15.8998 14.1929 15.8998C14.1133 15.8998 14.0323 15.8855 13.9535 15.8555C13.6061 15.7232 13.4318 15.3344 13.5641 14.987L15.4174 10.1208C15.4194 10.1157 15.4214 10.1105 15.4234 10.1055C15.5445 9.80952 15.8294 9.61807 16.1491 9.61775C16.4706 9.61609 16.7541 9.80831 16.8758 10.1041C16.8783 10.1102 16.8806 10.1163 16.883 10.1225L18.7195 14.9889C18.8508 15.3367 18.6753 15.725 18.3276 15.8562Z" fill="#5554DB"/>
<path id="Vector_2" d="M15.6312 13.3418H16.6593L16.1476 11.9858L15.6312 13.3418Z" fill="#5554DB"/>
<path id="Vector_3" d="M10.7154 0H2.99813C1.88483 0 0.979087 0.905743 0.979087 2.01904V8.85369L0.0665683 11.6265C0.0655812 11.6295 0.064639 11.6326 0.0636968 11.6356C-0.110255 12.1904 0.0790863 12.7728 0.546069 13.1193C0.787143 13.2981 1.06694 13.3879 1.34732 13.3879C1.6088 13.3879 1.87079 13.3099 2.10239 13.153L3.8656 11.9797H10.7153C11.8286 11.9797 12.7344 11.074 12.7344 9.96066V2.01909C12.7344 0.905743 11.8287 0 10.7154 0ZM9.66573 8.97977C9.53432 9.11114 9.36207 9.17687 9.18987 9.17687C9.01762 9.17687 8.84542 9.11118 8.714 8.97972L8.41931 8.68499C7.9259 9.00808 7.33692 9.19675 6.70438 9.19675C4.97325 9.19675 3.56485 7.78835 3.56485 6.05722C3.56485 4.32609 4.97325 2.9177 6.70438 2.9177C8.43551 2.9177 9.8439 4.32609 9.8439 6.05722C9.8439 6.66962 9.66704 7.24115 9.36261 7.72468L9.66582 8.0279C9.92857 8.29082 9.92857 8.71693 9.66573 8.97977Z" fill="#5554DB"/>
<path id="Vector_4" d="M6.70432 4.26367C5.71539 4.26367 4.91083 5.06824 4.91083 6.05717C4.91083 7.04609 5.71539 7.85066 6.70432 7.85066C6.9628 7.85066 7.2085 7.79525 7.43073 7.69636L7.13586 7.40149C6.87302 7.13866 6.87302 6.71255 7.13586 6.44971C7.39869 6.18688 7.8248 6.18688 8.08764 6.44971L8.3668 6.72888C8.45102 6.52128 8.49782 6.29461 8.49782 6.05717C8.49782 5.06819 7.69325 4.26367 6.70432 4.26367Z" fill="#5554DB"/>
</g>
</svg>
