<svg width="20" height="20" viewBox="0 0 20 20" fill="none" xmlns="http://www.w3.org/2000/svg">
<g id="Icon">
<g id="Group">
<path id="Vector" d="M10.0391 0C4.54648 0 0 4.46836 0 9.96094C0 15.4535 4.54648 20 10.0391 20C15.5316 20 20 15.4535 20 9.96094C20 4.46836 15.5316 0 10.0391 0ZM10.0391 17.0703C9.39297 17.0703 8.86719 16.5445 8.86719 15.8984C8.86719 15.2523 9.39297 14.7266 10.0391 14.7266C10.6848 14.7266 11.2109 15.2523 11.2109 15.8984C11.2109 16.5445 10.6848 17.0703 10.0391 17.0703ZM12.116 9.86758C11.5316 10.2969 11.2109 11.4309 11.2109 11.9969V12.3047C11.2109 12.9508 10.6848 13.4766 10.0391 13.4766C9.39297 13.4766 8.86719 12.9508 8.86719 12.3047V11.9969C8.86719 10.6824 9.54609 8.84531 10.7309 7.97773C11.641 7.30937 11.1684 5.85938 10.0391 5.85938C9.39297 5.85938 8.86719 6.38516 8.86719 7.03125C8.86719 7.67734 8.34102 8.20312 7.69531 8.20312C7.04922 8.20312 6.52344 7.67734 6.52344 7.03125C6.52344 5.09258 8.10039 3.51562 10.0391 3.51562C11.9777 3.51562 13.5547 5.09258 13.5547 7.03125C13.5547 8.14727 13.0168 9.20742 12.116 9.86758Z" fill="#A079EC"/>
</g>
</g>
</svg>
