<svg width="42" height="36" viewBox="0 0 42 36" fill="none" xmlns="http://www.w3.org/2000/svg">
<g id="Icon">
<g id="Vector">
<mask id="path-1-outside-1_51_99" maskUnits="userSpaceOnUse" x="0" y="0" width="23" height="36" fill="black">
<rect fill="white" width="23" height="36"/>
<path d="M15.2727 16.6365H10.4999C9.93165 16.6365 9.44858 16.4377 9.05081 16.0399C8.65326 15.6421 8.45423 15.1592 8.45423 14.5909V13.9093C8.45423 12.4036 8.987 11.1182 10.0525 10.0527C11.1179 8.9876 12.4035 8.45482 13.9091 8.45482H15.2727C15.6419 8.45482 15.9614 8.31982 16.2314 8.05004C16.5013 7.78011 16.6362 7.46062 16.6362 7.09129V4.36376C16.6362 3.9945 16.5012 3.67472 16.2314 3.40479C15.9615 3.13523 15.642 3 15.2727 3H13.9091C12.4317 3 11.0222 3.28792 9.6797 3.86293C8.33736 4.43832 7.17629 5.21609 6.19604 6.19634C5.21587 7.17614 4.43832 8.33728 3.863 9.67978C3.28769 11.0221 3 12.432 3 13.9093V28.9089C3 30.0459 3.39755 31.0113 4.19301 31.8071C4.98855 32.6024 5.95469 33 7.09099 33H15.2732C16.4094 33 17.3752 32.6024 18.1709 31.8071C18.9662 31.0113 19.3639 30.0459 19.3639 28.9089V20.7275C19.3639 19.5907 18.9662 18.6253 18.1703 17.8295C17.3751 17.0343 16.4089 16.6365 15.2727 16.6365Z"/>
</mask>
<path d="M15.2727 16.6365H10.4999C9.93165 16.6365 9.44858 16.4377 9.05081 16.0399C8.65326 15.6421 8.45423 15.1592 8.45423 14.5909V13.9093C8.45423 12.4036 8.987 11.1182 10.0525 10.0527C11.1179 8.9876 12.4035 8.45482 13.9091 8.45482H15.2727C15.6419 8.45482 15.9614 8.31982 16.2314 8.05004C16.5013 7.78011 16.6362 7.46062 16.6362 7.09129V4.36376C16.6362 3.9945 16.5012 3.67472 16.2314 3.40479C15.9615 3.13523 15.642 3 15.2727 3H13.9091C12.4317 3 11.0222 3.28792 9.6797 3.86293C8.33736 4.43832 7.17629 5.21609 6.19604 6.19634C5.21587 7.17614 4.43832 8.33728 3.863 9.67978C3.28769 11.0221 3 12.432 3 13.9093V28.9089C3 30.0459 3.39755 31.0113 4.19301 31.8071C4.98855 32.6024 5.95469 33 7.09099 33H15.2732C16.4094 33 17.3752 32.6024 18.1709 31.8071C18.9662 31.0113 19.3639 30.0459 19.3639 28.9089V20.7275C19.3639 19.5907 18.9662 18.6253 18.1703 17.8295C17.3751 17.0343 16.4089 16.6365 15.2727 16.6365Z" fill="#FFA873"/>
<path d="M15.2727 16.6365H10.4999C9.93165 16.6365 9.44858 16.4377 9.05081 16.0399C8.65326 15.6421 8.45423 15.1592 8.45423 14.5909V13.9093C8.45423 12.4036 8.987 11.1182 10.0525 10.0527C11.1179 8.9876 12.4035 8.45482 13.9091 8.45482H15.2727C15.6419 8.45482 15.9614 8.31982 16.2314 8.05004C16.5013 7.78011 16.6362 7.46062 16.6362 7.09129V4.36376C16.6362 3.9945 16.5012 3.67472 16.2314 3.40479C15.9615 3.13523 15.642 3 15.2727 3H13.9091C12.4317 3 11.0222 3.28792 9.6797 3.86293C8.33736 4.43832 7.17629 5.21609 6.19604 6.19634C5.21587 7.17614 4.43832 8.33728 3.863 9.67978C3.28769 11.0221 3 12.432 3 13.9093V28.9089C3 30.0459 3.39755 31.0113 4.19301 31.8071C4.98855 32.6024 5.95469 33 7.09099 33H15.2732C16.4094 33 17.3752 32.6024 18.1709 31.8071C18.9662 31.0113 19.3639 30.0459 19.3639 28.9089V20.7275C19.3639 19.5907 18.9662 18.6253 18.1703 17.8295C17.3751 17.0343 16.4089 16.6365 15.2727 16.6365Z" stroke="#F6F6F6" stroke-width="6" mask="url(#path-1-outside-1_51_99)"/>
</g>
<g id="Vector_2">
<mask id="path-2-outside-2_51_99" maskUnits="userSpaceOnUse" x="19.0913" y="0" width="23" height="36" fill="black">
<rect fill="white" x="19.0913" width="23" height="36"/>
<path d="M37.262 17.8295C36.4668 17.0343 35.5009 16.6365 34.3643 16.6365H29.5916C29.0237 16.6365 28.5402 16.4377 28.1431 16.0399C27.7452 15.6421 27.5465 15.1592 27.5465 14.5909V13.9093C27.5465 12.4036 28.0793 11.1182 29.1442 10.0527C30.2093 8.9876 31.4948 8.45482 33.0012 8.45482H34.3644C34.7338 8.45482 35.0535 8.31982 35.3232 8.05004C35.5929 7.78011 35.7283 7.46062 35.7283 7.09129V4.36376C35.7283 3.9945 35.593 3.67472 35.3232 3.40479C35.0535 3.13523 34.7338 3 34.3644 3H33.0012C31.5229 3 30.1137 3.28792 28.7709 3.86293C27.4287 4.43832 26.268 5.21609 25.2878 6.19634C24.3076 7.17614 23.5296 8.33728 22.9545 9.67978C22.3794 11.0221 22.0913 12.432 22.0913 13.9093V28.9089C22.0913 30.0459 22.4892 31.0113 23.2845 31.8071C24.0798 32.6024 25.0457 33 26.1821 33H34.3639C35.5004 33 36.4663 32.6024 37.2615 31.8071C38.0573 31.0113 38.4544 30.0459 38.4544 28.9089V20.7275C38.4545 19.5907 38.0573 18.6253 37.262 17.8295Z"/>
</mask>
<path d="M37.262 17.8295C36.4668 17.0343 35.5009 16.6365 34.3643 16.6365H29.5916C29.0237 16.6365 28.5402 16.4377 28.1431 16.0399C27.7452 15.6421 27.5465 15.1592 27.5465 14.5909V13.9093C27.5465 12.4036 28.0793 11.1182 29.1442 10.0527C30.2093 8.9876 31.4948 8.45482 33.0012 8.45482H34.3644C34.7338 8.45482 35.0535 8.31982 35.3232 8.05004C35.5929 7.78011 35.7283 7.46062 35.7283 7.09129V4.36376C35.7283 3.9945 35.593 3.67472 35.3232 3.40479C35.0535 3.13523 34.7338 3 34.3644 3H33.0012C31.5229 3 30.1137 3.28792 28.7709 3.86293C27.4287 4.43832 26.268 5.21609 25.2878 6.19634C24.3076 7.17614 23.5296 8.33728 22.9545 9.67978C22.3794 11.0221 22.0913 12.432 22.0913 13.9093V28.9089C22.0913 30.0459 22.4892 31.0113 23.2845 31.8071C24.0798 32.6024 25.0457 33 26.1821 33H34.3639C35.5004 33 36.4663 32.6024 37.2615 31.8071C38.0573 31.0113 38.4544 30.0459 38.4544 28.9089V20.7275C38.4545 19.5907 38.0573 18.6253 37.262 17.8295Z" fill="#FFA873"/>
<path d="M37.262 17.8295C36.4668 17.0343 35.5009 16.6365 34.3643 16.6365H29.5916C29.0237 16.6365 28.5402 16.4377 28.1431 16.0399C27.7452 15.6421 27.5465 15.1592 27.5465 14.5909V13.9093C27.5465 12.4036 28.0793 11.1182 29.1442 10.0527C30.2093 8.9876 31.4948 8.45482 33.0012 8.45482H34.3644C34.7338 8.45482 35.0535 8.31982 35.3232 8.05004C35.5929 7.78011 35.7283 7.46062 35.7283 7.09129V4.36376C35.7283 3.9945 35.593 3.67472 35.3232 3.40479C35.0535 3.13523 34.7338 3 34.3644 3H33.0012C31.5229 3 30.1137 3.28792 28.7709 3.86293C27.4287 4.43832 26.268 5.21609 25.2878 6.19634C24.3076 7.17614 23.5296 8.33728 22.9545 9.67978C22.3794 11.0221 22.0913 12.432 22.0913 13.9093V28.9089C22.0913 30.0459 22.4892 31.0113 23.2845 31.8071C24.0798 32.6024 25.0457 33 26.1821 33H34.3639C35.5004 33 36.4663 32.6024 37.2615 31.8071C38.0573 31.0113 38.4544 30.0459 38.4544 28.9089V20.7275C38.4545 19.5907 38.0573 18.6253 37.262 17.8295Z" stroke="#F6F6F6" stroke-width="6" mask="url(#path-2-outside-2_51_99)"/>
</g>
</g>
</svg>
