<svg width="42" height="36" viewBox="0 0 42 36" fill="none" xmlns="http://www.w3.org/2000/svg">
<g id="Icon">
<g id="Vector">
<mask id="path-1-outside-1_51_144" maskUnits="userSpaceOnUse" x="19" y="-2.62268e-07" width="23" height="36" fill="black">
<rect fill="white" x="19" y="-2.62268e-07" width="23" height="36"/>
<path d="M26.7273 19.3635L31.5001 19.3635C32.0684 19.3635 32.5514 19.5623 32.9492 19.9601C33.3467 20.3579 33.5458 20.8408 33.5458 21.4091L33.5458 22.0907C33.5458 23.5964 33.013 24.8818 31.9475 25.9473C30.8821 27.0124 29.5965 27.5452 28.0909 27.5452L26.7273 27.5452C26.3581 27.5452 26.0386 27.6802 25.7686 27.95C25.4987 28.2199 25.3638 28.5394 25.3638 28.9087L25.3638 31.6362C25.3638 32.0055 25.4988 32.3253 25.7686 32.5952C26.0385 32.8648 26.358 33 26.7273 33L28.0909 33C29.5683 33 30.9778 32.7121 32.3203 32.1371C33.6626 31.5617 34.8237 30.7839 35.804 29.8037C36.7841 28.8239 37.5617 27.6627 38.137 26.3202C38.7123 24.9779 39 23.568 39 22.0907L39 7.09106C39 5.9541 38.6025 4.9887 37.807 4.19294C37.0114 3.39762 36.0453 3 34.909 3L26.7268 3C25.5906 3 24.6248 3.39763 23.8291 4.19294C23.0338 4.98871 22.636 5.9541 22.6361 7.09106L22.6361 15.2725C22.6361 16.4093 23.0338 17.3747 23.8297 18.1705C24.6249 18.9657 25.5911 19.3635 26.7273 19.3635Z"/>
</mask>
<path d="M26.7273 19.3635L31.5001 19.3635C32.0684 19.3635 32.5514 19.5623 32.9492 19.9601C33.3467 20.3579 33.5458 20.8408 33.5458 21.4091L33.5458 22.0907C33.5458 23.5964 33.013 24.8818 31.9475 25.9473C30.8821 27.0124 29.5965 27.5452 28.0909 27.5452L26.7273 27.5452C26.3581 27.5452 26.0386 27.6802 25.7686 27.95C25.4987 28.2199 25.3638 28.5394 25.3638 28.9087L25.3638 31.6362C25.3638 32.0055 25.4988 32.3253 25.7686 32.5952C26.0385 32.8648 26.358 33 26.7273 33L28.0909 33C29.5683 33 30.9778 32.7121 32.3203 32.1371C33.6626 31.5617 34.8237 30.7839 35.804 29.8037C36.7841 28.8239 37.5617 27.6627 38.137 26.3202C38.7123 24.9779 39 23.568 39 22.0907L39 7.09106C39 5.9541 38.6025 4.9887 37.807 4.19294C37.0114 3.39762 36.0453 3 34.909 3L26.7268 3C25.5906 3 24.6248 3.39763 23.8291 4.19294C23.0338 4.98871 22.636 5.9541 22.6361 7.09106L22.6361 15.2725C22.6361 16.4093 23.0338 17.3747 23.8297 18.1705C24.6249 18.9657 25.5911 19.3635 26.7273 19.3635Z" fill="#129A7F"/>
<path d="M26.7273 19.3635L31.5001 19.3635C32.0684 19.3635 32.5514 19.5623 32.9492 19.9601C33.3467 20.3579 33.5458 20.8408 33.5458 21.4091L33.5458 22.0907C33.5458 23.5964 33.013 24.8818 31.9475 25.9473C30.8821 27.0124 29.5965 27.5452 28.0909 27.5452L26.7273 27.5452C26.3581 27.5452 26.0386 27.6802 25.7686 27.95C25.4987 28.2199 25.3638 28.5394 25.3638 28.9087L25.3638 31.6362C25.3638 32.0055 25.4988 32.3253 25.7686 32.5952C26.0385 32.8648 26.358 33 26.7273 33L28.0909 33C29.5683 33 30.9778 32.7121 32.3203 32.1371C33.6626 31.5617 34.8237 30.7839 35.804 29.8037C36.7841 28.8239 37.5617 27.6627 38.137 26.3202C38.7123 24.9779 39 23.568 39 22.0907L39 7.09106C39 5.9541 38.6025 4.9887 37.807 4.19294C37.0114 3.39762 36.0453 3 34.909 3L26.7268 3C25.5906 3 24.6248 3.39763 23.8291 4.19294C23.0338 4.98871 22.636 5.9541 22.6361 7.09106L22.6361 15.2725C22.6361 16.4093 23.0338 17.3747 23.8297 18.1705C24.6249 18.9657 25.5911 19.3635 26.7273 19.3635Z" stroke="#F6F6F6" stroke-width="6" mask="url(#path-1-outside-1_51_144)"/>
</g>
<g id="Vector_2">
<mask id="path-2-outside-2_51_144" maskUnits="userSpaceOnUse" x="-0.0913115" y="-2.62268e-07" width="23" height="36" fill="black">
<rect fill="white" x="-0.0913115" y="-2.62268e-07" width="23" height="36"/>
<path d="M4.73798 18.1705C5.53322 18.9657 6.49914 19.3635 7.63566 19.3635L12.4084 19.3635C12.9763 19.3635 13.4598 19.5623 13.8569 19.9601C14.2548 20.3579 14.4535 20.8408 14.4535 21.4091L14.4535 22.0907C14.4535 23.5964 13.9207 24.8818 12.8558 25.9473C11.7907 27.0124 10.5052 27.5452 8.99882 27.5452L7.63558 27.5452C7.26624 27.5452 6.94654 27.6802 6.67675 27.95C6.40712 28.2199 6.27167 28.5394 6.27167 28.9087L6.27167 31.6362C6.27167 32.0055 6.40705 32.3253 6.67676 32.5952C6.94646 32.8648 7.26617 33 7.63558 33L8.99882 33C10.4771 33 11.8863 32.7121 13.2291 32.1371C14.5713 31.5617 15.732 30.7839 16.7122 29.8037C17.6924 28.8239 18.4704 27.6627 19.0455 26.3202C19.6206 24.9779 19.9087 23.568 19.9087 22.0907L19.9087 7.09106C19.9087 5.9541 19.5108 4.9887 18.7155 4.19294C17.9202 3.39762 16.9543 3 15.8179 3L7.6361 3C6.49958 3 5.53374 3.39763 4.7385 4.19294C3.94266 4.98871 3.54556 5.9541 3.54556 7.09106L3.54556 15.2725C3.54549 16.4093 3.94266 17.3747 4.73798 18.1705Z"/>
</mask>
<path d="M4.73798 18.1705C5.53322 18.9657 6.49914 19.3635 7.63566 19.3635L12.4084 19.3635C12.9763 19.3635 13.4598 19.5623 13.8569 19.9601C14.2548 20.3579 14.4535 20.8408 14.4535 21.4091L14.4535 22.0907C14.4535 23.5964 13.9207 24.8818 12.8558 25.9473C11.7907 27.0124 10.5052 27.5452 8.99882 27.5452L7.63558 27.5452C7.26624 27.5452 6.94654 27.6802 6.67675 27.95C6.40712 28.2199 6.27167 28.5394 6.27167 28.9087L6.27167 31.6362C6.27167 32.0055 6.40705 32.3253 6.67676 32.5952C6.94646 32.8648 7.26617 33 7.63558 33L8.99882 33C10.4771 33 11.8863 32.7121 13.2291 32.1371C14.5713 31.5617 15.732 30.7839 16.7122 29.8037C17.6924 28.8239 18.4704 27.6627 19.0455 26.3202C19.6206 24.9779 19.9087 23.568 19.9087 22.0907L19.9087 7.09106C19.9087 5.9541 19.5108 4.9887 18.7155 4.19294C17.9202 3.39762 16.9543 3 15.8179 3L7.6361 3C6.49958 3 5.53374 3.39763 4.7385 4.19294C3.94266 4.98871 3.54556 5.9541 3.54556 7.09106L3.54556 15.2725C3.54549 16.4093 3.94266 17.3747 4.73798 18.1705Z" fill="#129A7F"/>
<path d="M4.73798 18.1705C5.53322 18.9657 6.49914 19.3635 7.63566 19.3635L12.4084 19.3635C12.9763 19.3635 13.4598 19.5623 13.8569 19.9601C14.2548 20.3579 14.4535 20.8408 14.4535 21.4091L14.4535 22.0907C14.4535 23.5964 13.9207 24.8818 12.8558 25.9473C11.7907 27.0124 10.5052 27.5452 8.99882 27.5452L7.63558 27.5452C7.26624 27.5452 6.94654 27.6802 6.67675 27.95C6.40712 28.2199 6.27167 28.5394 6.27167 28.9087L6.27167 31.6362C6.27167 32.0055 6.40705 32.3253 6.67676 32.5952C6.94646 32.8648 7.26617 33 7.63558 33L8.99882 33C10.4771 33 11.8863 32.7121 13.2291 32.1371C14.5713 31.5617 15.732 30.7839 16.7122 29.8037C17.6924 28.8239 18.4704 27.6627 19.0455 26.3202C19.6206 24.9779 19.9087 23.568 19.9087 22.0907L19.9087 7.09106C19.9087 5.9541 19.5108 4.9887 18.7155 4.19294C17.9202 3.39762 16.9543 3 15.8179 3L7.6361 3C6.49958 3 5.53374 3.39763 4.7385 4.19294C3.94266 4.98871 3.54556 5.9541 3.54556 7.09106L3.54556 15.2725C3.54549 16.4093 3.94266 17.3747 4.73798 18.1705Z" stroke="#F6F6F6" stroke-width="6" mask="url(#path-2-outside-2_51_144)"/>
</g>
</g>
</svg>
