<svg width="24" height="20" viewBox="0 0 24 20" fill="none" xmlns="http://www.w3.org/2000/svg">
<g id="Icon">
<g id="Group">
<path id="Vector" d="M8.35834 2.72389C8.73314 2.72389 9.037 2.42004 9.037 2.04524V0.678655C9.037 0.303856 8.73314 0 8.35834 0C7.98354 0 7.67969 0.303856 7.67969 0.678655V2.04524C7.67969 2.42004 7.98354 2.72389 8.35834 2.72389Z" fill="#A0A2B3"/>
<path id="Vector_2" d="M2.20161 5.2081L1.01808 4.52479C0.693453 4.3373 0.278388 4.4486 0.0910337 4.77318C-0.0963656 5.0978 0.0148433 5.51287 0.339421 5.70022L1.52295 6.38353C1.8468 6.57057 2.26219 6.46049 2.44999 6.13515C2.63739 5.81052 2.52618 5.39546 2.20161 5.2081Z" fill="#A0A2B3"/>
<path id="Vector_3" d="M1.52292 12.7093L0.33939 13.3925C-0.259636 13.7383 -0.0136912 14.659 0.679351 14.659C0.986872 14.659 1.06456 14.5104 2.20153 13.8847C2.52611 13.6973 2.63732 13.2823 2.44992 12.9576C2.26256 12.6331 1.84759 12.5217 1.52292 12.7093Z" fill="#A0A2B3"/>
<path id="Vector_4" d="M15.1937 6.38353L16.3773 5.70022C16.7018 5.51282 16.8131 5.0978 16.6257 4.77318C16.4383 4.4486 16.0233 4.3373 15.6986 4.52479L14.5151 5.2081C14.1905 5.3955 14.0793 5.81052 14.2667 6.13515C14.455 6.46135 14.8707 6.57012 15.1937 6.38353Z" fill="#A0A2B3"/>
<path id="Vector_5" d="M6.98662 11.2646C7.49032 8.50504 9.71359 6.39125 12.489 6.02722C11.4924 4.85917 10.0105 4.11713 8.35827 4.11713C5.36459 4.11713 2.92908 6.55268 2.92908 9.54637C2.92908 10.9762 3.4849 12.2784 4.39153 13.249C5.0192 12.3279 5.93534 11.625 6.98662 11.2646Z" fill="#A0A2B3"/>
<path id="Vector_6" d="M18.0479 10.5098C17.2794 8.61071 15.4168 7.32941 13.3287 7.32941C10.529 7.32941 8.26903 9.58553 8.23944 12.3676C6.31184 12.579 4.84558 14.2319 4.84558 16.171C4.84558 18.281 6.56217 19.9976 8.67211 19.9976C19.3502 19.9865 18.7659 20.0249 18.9518 19.9672C21.3238 19.6997 23.1646 17.6879 23.1646 15.2471C23.1646 12.4598 20.7829 10.2956 18.0479 10.5098Z" fill="#A0A2B3"/>
</g>
</g>
</svg>
