<svg width="20" height="20" viewBox="0 0 20 20" fill="none" xmlns="http://www.w3.org/2000/svg">
<g id="Icon">
<g id="Group">
<g id="Group_2">
<g id="Group_3">
<path id="Vector" d="M13.5714 6.48148C12.672 5.58201 11.4021 5 10.0265 5C8.65079 5 7.38095 5.55556 6.48148 6.48148C5.58201 7.38095 5 8.65079 5 10.0265C5 11.4021 5.58201 12.672 6.48148 13.5714C7.38095 14.4709 8.65079 15.0529 10.0265 15.0529C11.4021 15.0529 12.672 14.4974 13.5714 13.5714C14.4709 12.672 15.0529 11.4021 15.0529 10.0265C15.0529 8.65079 14.4974 7.38095 13.5714 6.48148Z" fill="#A0A2B3"/>
<path id="Vector_2" d="M10.0001 3.4127C10.3705 3.4127 10.6879 3.09524 10.6879 2.72487V0.687831C10.6879 0.31746 10.3705 0 10.0001 0C9.62972 0 9.31226 0.31746 9.31226 0.687831V2.72487C9.31226 3.09524 9.62972 3.4127 10.0001 3.4127Z" fill="#A0A2B3"/>
<path id="Vector_3" d="M15.6349 5.34392L17.09 3.88889C17.3545 3.62434 17.3545 3.20106 17.09 2.93651C16.8254 2.67196 16.4021 2.67196 16.1376 2.93651L14.6825 4.39154C14.418 4.65609 14.418 5.07937 14.6825 5.34392C14.9206 5.60847 15.3439 5.60847 15.6349 5.34392Z" fill="#A0A2B3"/>
<path id="Vector_4" d="M19.3123 9.31213H17.2752C16.9049 9.31213 16.5874 9.62959 16.5874 9.99996C16.5874 10.3703 16.9049 10.6878 17.2752 10.6878H19.3123C19.6826 10.6878 20.0001 10.3703 20.0001 9.99996C20.0001 9.62959 19.6826 9.31213 19.3123 9.31213Z" fill="#A0A2B3"/>
<path id="Vector_5" d="M15.6086 14.6561C15.344 14.3916 14.9207 14.3916 14.6562 14.6561C14.3916 14.9207 14.3916 15.3439 14.6562 15.6085L16.1112 17.0635C16.3758 17.3281 16.799 17.3281 17.0636 17.0635C17.3281 16.799 17.3281 16.3757 17.0636 16.1111L15.6086 14.6561Z" fill="#A0A2B3"/>
<path id="Vector_6" d="M10.0001 16.5873C9.62972 16.5873 9.31226 16.9047 9.31226 17.2751V19.3121C9.31226 19.6825 9.62972 20 10.0001 20C10.3705 20 10.6879 19.6825 10.6879 19.3121V17.2751C10.6879 16.9047 10.3705 16.5873 10.0001 16.5873Z" fill="#A0A2B3"/>
<path id="Vector_7" d="M4.36511 14.6561L2.91008 16.1111C2.64553 16.3757 2.64553 16.799 2.91008 17.0635C3.17463 17.3281 3.59791 17.3281 3.86246 17.0635L5.31749 15.6085C5.58204 15.3439 5.58204 14.9207 5.31749 14.6561C5.07939 14.3916 4.65611 14.3916 4.36511 14.6561Z" fill="#A0A2B3"/>
<path id="Vector_8" d="M3.41276 9.99996C3.41276 9.62959 3.0953 9.31213 2.72493 9.31213H0.687892C0.317521 9.31213 6.10352e-05 9.62959 6.10352e-05 9.99996C6.10352e-05 10.3703 0.317521 10.6878 0.687892 10.6878H2.72493C3.0953 10.6878 3.41276 10.3703 3.41276 9.99996Z" fill="#A0A2B3"/>
<path id="Vector_9" d="M4.36511 5.34392C4.62966 5.60847 5.05294 5.60847 5.31749 5.34392C5.58204 5.07937 5.58204 4.65609 5.31749 4.39154L3.86246 2.93651C3.59791 2.67196 3.17463 2.67196 2.91008 2.93651C2.64553 3.20106 2.64553 3.62434 2.91008 3.88889L4.36511 5.34392Z" fill="#A0A2B3"/>
</g>
</g>
</g>
</g>
</svg>
