<svg width="39" height="29" viewBox="0 0 39 29" fill="none" xmlns="http://www.w3.org/2000/svg">
<g id="Icon">
<g id="Group">
<path id="Vector" d="M37.6619 1.30909C37.4757 1.2363 37.2967 1.19976 37.1247 1.19976C36.7379 1.19976 36.416 1.33859 36.1579 1.61549L27.4997 10.4095V6.80011C27.4997 5.06447 26.8945 3.58083 25.6842 2.34842C24.4738 1.11617 23.0168 0.5 21.312 0.5H6.18734C4.48308 0.5 3.02565 1.11617 1.81518 2.34842C0.605159 3.58083 0 5.06447 0 6.80011V22.2001C0 23.9356 0.605159 25.4192 1.81525 26.6515C3.02572 27.8838 4.48316 28.5 6.18742 28.5H21.3122C23.0169 28.5 24.474 27.8838 25.6844 26.6515C26.8947 25.4192 27.4998 23.9357 27.4998 22.2001V18.5686L36.1581 27.3844C36.4161 27.6613 36.738 27.8 37.1248 27.8C37.2968 27.8 37.4758 27.7635 37.662 27.6909C38.2209 27.4429 38.5 27.0128 38.5 26.4003V2.60004C38.4998 1.98724 38.2207 1.55711 37.6619 1.30909Z" fill="white"/>
</g>
<path id="Vector 1" d="M10 22L10 7" stroke="#41AE99" stroke-width="2" stroke-linecap="round"/>
<path id="Vector 2" d="M16 18.5L16 10.5" stroke="#41AE99" stroke-width="2" stroke-linecap="round"/>
</g>
</svg>
