<svg width="39" height="28" viewBox="0 0 39 28" fill="none" xmlns="http://www.w3.org/2000/svg">
<g id="Icon" opacity="0.2">
<g id="Group">
<path id="Vector" d="M37.6619 0.809092C37.4757 0.736304 37.2967 0.699757 37.1247 0.699757C36.7379 0.699757 36.416 0.83859 36.1579 1.11549L27.4997 9.90945V6.30011C27.4997 4.56447 26.8945 3.08083 25.6842 1.84842C24.4738 0.616166 23.0168 0 21.312 0H6.18734C4.48308 0 3.02565 0.616166 1.81518 1.84842C0.605159 3.08083 0 4.56447 0 6.30011V21.7001C0 23.4356 0.605159 24.9192 1.81525 26.1515C3.02572 27.3838 4.48316 28 6.18742 28H21.3122C23.0169 28 24.474 27.3838 25.6844 26.1515C26.8947 24.9192 27.4998 23.4357 27.4998 21.7001V18.0686L36.1581 26.8844C36.4161 27.1613 36.738 27.3 37.1248 27.3C37.2968 27.3 37.4758 27.2635 37.662 27.1909C38.2209 26.9429 38.5 26.5128 38.5 25.9003V2.10004C38.4998 1.48724 38.2207 1.05711 37.6619 0.809092Z" fill="white"/>
</g>
<path id="Vector 1" d="M10 21.5L10 6.5" stroke="#41AE99" stroke-width="2" stroke-linecap="round"/>
<path id="Vector 2" d="M16 18L16 10" stroke="#41AE99" stroke-width="2" stroke-linecap="round"/>
</g>
</svg>
