<svg width="120" height="120" viewBox="0 0 120 120" fill="none" xmlns="http://www.w3.org/2000/svg">
<g id="Icon">
<path id="BG" opacity="0.25" d="M87.94 0H32.0667C11.8 0 0 10.68 0 28.98V90.96C0 109.56 11.8 120 32.0667 120H87.94C108.533 120 120 109.56 120 90.96V28.98C120 10.68 108.533 0 87.94 0Z" fill="#A0A2B3"/>
<path id="Shape" fill-rule="evenodd" clip-rule="evenodd" d="M35.2206 27.9004V27.9604C32.6346 27.9604 30.5406 30.0604 30.5406 32.6404C30.5406 35.2204 32.6346 37.3204 35.2206 37.3204H53.1546C55.7406 37.3204 57.8406 35.2204 57.8406 32.5744C57.8406 30.0004 55.7406 27.9004 53.1546 27.9004H35.2206ZM82.2606 64.4402H35.2206C32.6346 64.4402 30.5406 62.3402 30.5406 59.7602C30.5406 57.1802 32.6346 55.0742 35.2206 55.0742H82.2606C84.8406 55.0742 86.9406 57.1802 86.9406 59.7602C86.9406 62.3402 84.8406 64.4402 82.2606 64.4402ZM82.2605 91.86H35.2205C33.4205 92.1 31.6805 91.2 30.7205 89.7C29.7605 88.14 29.7605 86.16 30.7205 84.66C31.6805 83.1 33.4205 82.26 35.2205 82.44H82.2605C84.6545 82.68 86.4605 84.72 86.4605 87.18C86.4605 89.574 84.6545 91.62 82.2605 91.86Z" fill="white"/>
</g>
</svg>
