<svg width="26" height="30" viewBox="0 0 26 30" fill="none" xmlns="http://www.w3.org/2000/svg">
<g id="Group 595">
<g id="Notification">
<path id="Path_425-2" d="M0.00270824 17.8686V17.5619C0.0550819 16.5796 0.365066 15.628 0.901898 14.8016C1.79704 13.7986 2.41242 12.5804 2.68686 11.2679C2.75396 10.2678 2.68686 9.24099 2.75396 8.22755C3.23711 3.36036 8.05515 0 12.6719 0H12.8061C17.5034 0 22.2006 3.36036 22.7106 8.22755C22.8045 9.22766 22.7106 10.2678 22.7911 11.2679C23.0589 12.5827 23.6751 13.8026 24.5761 14.8016C25.1362 15.6186 25.4569 16.5743 25.5021 17.5619V17.8686C25.5104 19.199 25.0336 20.4874 24.16 21.4956C23.0393 22.6911 21.5158 23.4361 19.8788 23.5892C15.0985 24.2026 10.2587 24.2026 5.47837 23.5892C3.8604 23.4235 2.35807 22.6795 1.25084 21.4956C0.404628 20.4777 -0.0391133 19.1882 0.00270824 17.8686Z" fill="#777A95"/>
<path id="Path_426" opacity="0.4" d="M14.4973 25.6428C13.5444 25.5761 12.766 25.6428 11.9876 25.6428C11.2156 25.6295 10.4449 25.7101 9.69266 25.8828C9.04846 26.0295 8.35059 26.3762 8.35059 27.1096C8.41818 27.8184 8.80244 28.4597 9.3974 28.8565C10.5435 29.7317 11.9877 30.1288 13.4236 29.9633C14.8194 29.8603 16.0951 29.1409 16.8996 28.003C17.3443 27.4266 17.2429 26.6025 16.6714 26.1495V26.1495V26.1495C15.9948 25.8188 15.2513 25.6455 14.4973 25.6428Z" fill="#A0A2B3"/>
</g>
</g>
</svg>
