<svg width="88" height="88" viewBox="0 0 88 88" fill="none" xmlns="http://www.w3.org/2000/svg">
<g id="Icon">
<g id="Profile">
<path id="Ellipse_744" opacity="0.4" d="M44.0003 48.0741C55.3913 48.0741 64.6256 38.9539 64.6256 27.7037C64.6256 16.4535 55.3913 7.33333 44.0003 7.33333C32.6093 7.33333 23.375 16.4535 23.375 27.7037C23.375 38.9539 32.6093 48.0741 44.0003 48.0741Z" fill="#A0A2B3"/>
<path id="Path_34198" d="M76.9642 68.4779V68.4779C76.9828 68.188 76.9828 67.8972 76.9642 67.6073C76.8826 66.5358 76.5785 65.4894 76.0691 64.5266C74.0641 60.6088 68.4429 58.8341 63.7527 57.8295C60.4063 57.1329 57.0063 56.685 53.5844 56.4901L50.0041 56.2222H48.3929H46.3879H41.5902H39.5852H37.9741L34.3937 56.4901C30.9718 56.685 27.5718 57.1329 24.2255 57.8295C19.5352 58.7001 13.914 60.5084 11.909 64.5266C11.3996 65.4894 11.0956 66.5358 11.014 67.6073C10.9953 67.8972 10.9953 68.188 11.014 68.4779V68.4779C10.9968 68.7679 10.9968 69.0586 11.014 69.3485C11.1113 70.4109 11.4274 71.4456 11.9448 72.3957C13.9499 76.3135 19.571 78.0883 24.2613 79.0928C27.6138 79.7569 31.0113 80.2044 34.4295 80.4323L38.0099 80.6667H38.8692H39.621H48.4287H49.1806H50.0399L53.6202 80.4323C57.0385 80.2044 60.4359 79.7569 63.7885 79.0928C68.4787 78.1887 74.0999 76.414 76.1049 72.3957C76.5982 71.4155 76.9013 70.361 77 69.2816C77.0046 69.0133 76.9926 68.7449 76.9642 68.4779Z" fill="#777A95"/>
</g>
</g>
</svg>
