<svg width="30" height="30" viewBox="0 0 30 30" fill="none" xmlns="http://www.w3.org/2000/svg">
<g id="Group 595">
<g id="Search">
<path id="Ellipse_746" d="M12.8988 25.9597C20.0227 25.9597 25.7977 20.1484 25.7977 12.9799C25.7977 5.81128 20.0227 0 12.8988 0C5.775 0 0 5.81128 0 12.9799C0 20.1484 5.775 25.9597 12.8988 25.9597Z" fill="#777A95"/>
<path id="Path_34202" opacity="0.4" d="M28.0118 29.9329C27.5107 29.9167 27.0343 29.7105 26.6779 29.3557L23.6233 25.7853C22.9684 25.1864 22.9148 24.1685 23.5032 23.5034V23.5034C23.7786 23.2247 24.1531 23.068 24.5436 23.068C24.9342 23.068 25.3087 23.2247 25.5841 23.5034L29.4257 26.5772C29.9791 27.1436 30.1499 27.9844 29.8617 28.7239C29.5735 29.4633 28.8803 29.9632 28.0918 30L28.0118 29.9329Z" fill="#A0A2B3"/>
</g>
</g>
</svg>
