<svg width="11" height="19" viewBox="0 0 11 19" fill="none" xmlns="http://www.w3.org/2000/svg">
<path id="Icon" d="M10.5858 0.00395327L7.94737 0C4.98322 0 3.06766 1.8353 3.06766 4.67593V6.83184H0.414863C0.18563 6.83184 0 7.00539 0 7.21946V10.3431C0 10.5572 0.185842 10.7306 0.414863 10.7306H3.06766V18.6126C3.06766 18.8267 3.25329 19 3.48252 19H6.94366C7.17289 19 7.35852 18.8265 7.35852 18.6126V10.7306H10.4603C10.6895 10.7306 10.8751 10.5572 10.8751 10.3431L10.8764 7.21946C10.8764 7.11667 10.8326 7.01824 10.7549 6.9455C10.6772 6.87276 10.5714 6.83184 10.4613 6.83184H7.35852V5.00424C7.35852 4.12583 7.58267 3.6799 8.808 3.6799L10.5853 3.67931C10.8144 3.67931 11 3.50576 11 3.29189V0.391374C11 0.177699 10.8146 0.0043486 10.5858 0.00395327Z" fill="white"/>
</svg>
