<svg width="79" height="26" viewBox="0 0 79 26" fill="none" xmlns="http://www.w3.org/2000/svg">
<g id="Point">
<path d="M0.227547 0.673942H9.34647C11.6757 0.673942 13.6555 1.47794 15.286 3.08595C16.8932 4.69395 17.6967 6.66848 17.6967 9.00955C17.6967 11.3506 16.8932 13.3251 15.286 14.9331C13.6555 16.5412 11.6757 17.3452 9.34647 17.3452H5.04905V25.5034H0.227547V0.673942ZM5.04905 12.7694H9.34647C10.3713 12.7694 11.2215 12.4147 11.897 11.7053C12.5724 10.9723 12.9102 10.0737 12.9102 9.00955C12.9102 7.92178 12.5724 7.02319 11.897 6.31378C11.2215 5.60436 10.3713 5.24966 9.34647 5.24966H5.04905V12.7694Z" fill="#129A7F"/>
<path d="M34.3498 23.3042C32.5796 25.1014 30.3901 26 27.7814 26C25.1727 26 22.9832 25.1014 21.213 23.3042C19.4428 21.507 18.5577 19.2842 18.5577 16.6357C18.5577 14.0109 19.4428 11.7999 21.213 10.0027C23.0065 8.1819 25.1959 7.27149 27.7814 7.27149C30.3668 7.27149 32.5563 8.1819 34.3498 10.0027C36.1433 11.8236 37.0401 14.0346 37.0401 16.6357C37.0401 19.2606 36.1433 21.4834 34.3498 23.3042ZM24.3924 20.1473C25.3008 21.0696 26.4304 21.5307 27.7814 21.5307C29.1323 21.5307 30.262 21.0696 31.1704 20.1473C32.0788 19.2251 32.533 18.0546 32.533 16.6357C32.533 15.2169 32.0788 14.0464 31.1704 13.1241C30.262 12.2019 29.1323 11.7408 27.7814 11.7408C26.4304 11.7408 25.3008 12.2019 24.3924 13.1241C23.5073 14.07 23.0647 15.2406 23.0647 16.6357C23.0647 18.0309 23.5073 19.2014 24.3924 20.1473Z" fill="#129A7F"/>
<path d="M42.4468 5.63984C41.7014 5.63984 41.0492 5.36789 40.4902 4.82401C39.9545 4.25648 39.6866 3.59436 39.6866 2.83765C39.6866 2.08095 39.9545 1.41883 40.4902 0.851295C41.0492 0.283765 41.7014 0 42.4468 0C43.2154 0 43.8676 0.283765 44.4033 0.851295C44.9623 1.41883 45.2419 2.08095 45.2419 2.83765C45.2419 3.59436 44.9623 4.25648 44.4033 4.82401C43.8676 5.36789 43.2154 5.63984 42.4468 5.63984ZM44.7178 25.5034H40.2107V7.76807H44.7178V25.5034Z" fill="#129A7F"/>
<path d="M58.5558 7.27149C60.4891 7.27149 62.0613 7.92178 63.2725 9.22237C64.5303 10.5466 65.1592 12.3438 65.1592 14.6139V25.5034H60.6521V15.1814C60.6521 14.0227 60.3377 13.1241 59.7088 12.4857C59.1032 11.8472 58.2647 11.528 57.1932 11.528C56.0053 11.528 55.062 11.9063 54.3632 12.663C53.6878 13.3961 53.35 14.4839 53.35 15.9263V25.5034H48.843V7.76807H53.35V9.75443C54.4215 8.09913 56.1567 7.27149 58.5558 7.27149Z" fill="#129A7F"/>
<path d="M79 7.76807V12.1664H75.052V19.5443C75.052 20.1592 75.2034 20.6085 75.5062 20.8922C75.809 21.176 76.2515 21.3415 76.8338 21.3888C77.4161 21.4125 78.1382 21.4006 79 21.3533V25.5034C75.9487 25.8581 73.7709 25.5743 72.4665 24.6521C71.1854 23.7062 70.5449 22.0036 70.5449 19.5443V12.1664H67.5053V7.76807H70.5449V4.18554L75.052 2.80218V7.76807H79Z" fill="#129A7F"/>
</g>
</svg>
